<svg xmlns="http://www.w3.org/2000/svg" width="9768.05" height="9802.439" viewBox="0 0 9768.05 9802.439">
  <g id="LOGO_BAKTA" data-name="LOGO BAKTA" transform="translate(-414.572 -454.713)">
    <g id="Group_1" data-name="Group 1" transform="translate(458.709 500.027)">
      <g id="Layer_x0020_1" transform="translate(0)">
        <g id="_2642358329024">
          <g id="Path_2120">
            <path id="Path_1" data-name="Path 1" d="M5357.955,580c686.655,675.39,1875.251,716.9,2690.208,1309.278,796.174,581.063,1335.684,1924.313,2150.7,2207.273-430.162,864.024-101.891,2003.555-415.02,2965.714-305.674,935.748-1414.92,1860.167-1433.818,2724.191-954.588-143.388-1939.4,520.669-2946.815,520.669-984.814,0-2211.059-769.705-3037.373-520.669-158.472-950.832-1094.208-1682.8-1407.378-2641.2C656.6,6209.511,1011.282,4805.918,517,4096.551,1373.513,3651.3,1777.229,2534.487,2596,1942.1,3392.14,1364.812,4837.229,1266.712,5357.955,580Z" transform="translate(-517.002 -580)" fill="#fff" stroke="#000" stroke-width="60" fill-rule="evenodd"/>
          </g>
          <g id="Path_2121" transform="translate(324.446 324.492)">
            <path id="Path_2" data-name="Path 2" d="M5119.479,666c641.4,630.114,1750.705,667.848,2512.9,1222.5,743.292,539.556,1245.12,1796.039,2003.554,2060.158-399.936,803.63-94.377,1867.68-384.851,2765.688-283.021,875.352-1324.415,1739.434-1339.5,2543.063-890.437-132.061-1807.343,486.743-2750.6,486.743-920.664,0-2060.136-716.88-2833.66-486.743-147.15-886.68-1022.52-1569.577-1313.052-2463.828-282.984-875.353,49.05-2184.624-411.27-2844.924,796.134-415.078,1177.218-1456.445,1939.391-2011.108C3285.724,1397.988,4632.735,1307.436,5119.479,666Z" transform="translate(-602.994 -666)" fill="none" stroke="#000" stroke-width="60" fill-rule="evenodd"/>
          </g>
        </g>
      </g>
    </g>
    <g id="Group_4" data-name="Group 4" transform="translate(1835.902 1499.712)">
      <g id="Group_617" transform="translate(0)">
        <g id="Group_616">
          <g id="Path_2073" transform="translate(2974.386 2359.486)">
            <path id="Path_3" data-name="Path 3" d="M742.744,208.277H215.452L6.11,2.5H966.333Z" transform="translate(29.202 11.949)" fill="#fffa00"/>
            <path id="Path_4" data-name="Path 4" d="M70.619,28.9,250.567,205.777H766.312L958.5,28.9H70.619M0,0H1032.57L777.587,234.674H238.742Z" fill="#100f09"/>
          </g>
          <g id="Group_601" transform="translate(1202.593)">
            <g id="Group_598" transform="translate(1771.799 1984.008)">
              <g id="Rectangle_180" transform="translate(129.072 598.419)">
                <rect id="Rectangle_1" data-name="Rectangle 1" width="774.426" height="2088.61" fill="#fffa00"/>
                <rect id="Rectangle_2" data-name="Rectangle 2" width="745.529" height="2059.713" transform="translate(14.449 14.449)" fill="none" stroke="#000" stroke-width="30"/>
              </g>
              <g id="Rectangle_181" transform="translate(387.216 833.099)">
                <rect id="Rectangle_3" data-name="Rectangle 3" width="258.144" height="1619.257" fill="#168546"/>
                <rect id="Rectangle_4" data-name="Rectangle 4" width="229.247" height="1590.36" transform="translate(14.449 14.449)" fill="none" stroke="#000" stroke-linejoin="round" stroke-width="30"/>
              </g>
              <g id="Rectangle_182">
                <rect id="Rectangle_5" data-name="Rectangle 5" width="1032.57" height="387.216" fill="#fffa00"/>
                <rect id="Rectangle_6" data-name="Rectangle 6" width="1003.673" height="358.319" transform="translate(14.449 14.449)" fill="none" stroke="#000" stroke-width="30"/>
              </g>
            </g>
            <g id="Group_600">
              <g id="Group_597" transform="translate(0 1645.247)">
                <g id="Group_594" transform="translate(2960.385)">
                  <g id="Rectangle_176" transform="translate(0 2087.084)">
                    <rect id="Rectangle_7" data-name="Rectangle 7" width="1020.838" height="1314.178" fill="#ea3c00"/>
                    <rect id="Rectangle_8" data-name="Rectangle 8" width="991.941" height="1285.281" transform="translate(14.449 14.449)" fill="none" stroke="#000" stroke-width="30"/>
                  </g>
                  <g id="Path_2067" transform="translate(5.895 1453.486)">
                    <path id="Path_5" data-name="Path 5" d="M1937,1516.6H3094.157V883s-129.17,5.595-243.776,69.636c-68.371,38.249-106.63,140.3-219.5,165.032-108.77,23.846-228.173,17.523-344.8,19.008-185.867,2.37-349.078,0-349.078,0Z" transform="translate(-1937 -883)" fill="#ea3c00" stroke="#000" stroke-width="30"/>
                  </g>
                  <g id="Path_2068" transform="translate(5.664 1553.655)">
                    <path id="Path_6" data-name="Path 6" d="M1937.538,897.239l793.053-6.7V977.1s-35.254,39.416-135.238,58.661c-53.113,10.235-134.95,5.976-214.012,7.513-204.3,3.953-443.86,0-443.86,0Z" transform="translate(-1937.48 -890.541)" fill="#ea3c00" stroke="#000" stroke-width="30"/>
                  </g>
                  <g id="Rectangle_177" transform="translate(0 1418.26)">
                    <rect id="Rectangle_9" data-name="Rectangle 9" width="692.289" height="140.804" fill="#ea3c00"/>
                    <rect id="Rectangle_10" data-name="Rectangle 10" width="663.392" height="111.907" transform="translate(14.449 14.449)" fill="none" stroke="#000" stroke-width="30"/>
                  </g>
                  <g id="Rectangle_178" transform="translate(0 1218.789)">
                    <rect id="Rectangle_11" data-name="Rectangle 11" width="633.622" height="211.209" fill="#ea3c00"/>
                    <rect id="Rectangle_12" data-name="Rectangle 12" width="604.725" height="182.312" transform="translate(14.449 14.449)" fill="none" stroke="#000" stroke-width="30"/>
                  </g>
                  <g id="Rectangle_179" transform="translate(0 1054.515)">
                    <rect id="Rectangle_13" data-name="Rectangle 13" width="692.289" height="176.007" fill="#ea3c00"/>
                    <rect id="Rectangle_14" data-name="Rectangle 14" width="663.392" height="147.11" transform="translate(14.449 14.449)" fill="none" stroke="#000" stroke-width="30"/>
                  </g>
                  <g id="Path_2069" transform="translate(5.895 707.731)">
                    <path id="Path_7" data-name="Path 7" d="M1938,976.189v196.8h685.787v47.021l179.394,92.3V1082.427s67.042,30.475,97.5-31.348c14.968-30.417-2.544-77.756,0-127.147,2.254-43.623,24.39-88.818,24.39-88.818s-101.43-35.254-179.394,0c-77.907,35.254-132.349,141.064-132.349,141.064Z" transform="translate(-1938 -819.445)" fill="#ea3c00" stroke="#000" stroke-width="30"/>
                  </g>
                  <g id="Path_2070" transform="translate(5.895 728.306)">
                    <path id="Path_8" data-name="Path 8" d="M1938,959.293V821.2h679.2V956.312Z" transform="translate(-1938 -821.2)" fill="#ea3c00" stroke="#000" stroke-width="30"/>
                  </g>
                  <g id="Path_2071" transform="translate(5.895 589.756)">
                    <path id="Path_9" data-name="Path 9" d="M1938,809.391V947.479h509.341V812.489Z" transform="translate(-1938 -809.391)" fill="#ea3c00" stroke="#000" stroke-width="30"/>
                  </g>
                  <g id="Path_2072" transform="translate(5.895)">
                    <path id="Path_10" data-name="Path 10" d="M1938.5,759.13V1345.9H2330l34.85-204.967L2198.69,1269.546s104.839-117.56,72.358-245.158c-11.732-46.062-132.639-61.625-132.639-61.625l-69.642-203.627Z" transform="translate(-1938.5 -759.13)" fill="#ea3c00" stroke="#000" stroke-width="30"/>
                  </g>
                </g>
                <g id="Group_595" transform="translate(449.362)">
                  <g id="Rectangle_176-2" transform="translate(142.157 2087.084)">
                    <rect id="Rectangle_15" data-name="Rectangle 15" width="1020.838" height="1314.178" fill="#ea3c00"/>
                    <rect id="Rectangle_16" data-name="Rectangle 16" width="991.941" height="1285.281" transform="translate(14.449 14.449)" fill="none" stroke="#000" stroke-width="30"/>
                  </g>
                  <g id="Path_2067-2" transform="translate(0 1453.486)">
                    <path id="Path_11" data-name="Path 11" d="M3094.1,1516.6H1937V883s129.17,5.595,243.719,69.636c68.429,38.249,106.688,140.3,219.5,165.032,108.769,23.846,228.171,17.523,344.858,19.008,185.809,2.37,349.077,0,349.077,0Z" transform="translate(-1937 -883)" fill="#ea3c00" stroke="#000" stroke-width="30"/>
                  </g>
                  <g id="Path_2068-2" transform="translate(364.22 1553.655)">
                    <path id="Path_12" data-name="Path 12" d="M2730.543,897.239l-793.053-6.7V977.1s35.254,39.416,135.238,58.661c53.113,10.235,134.95,5.976,214.013,7.513,204.3,3.953,443.859,0,443.859,0Z" transform="translate(-1937.49 -890.541)" fill="#ea3c00" stroke="#000" stroke-width="30"/>
                  </g>
                  <g id="Rectangle_177-2" transform="translate(470.7 1418.26)">
                    <rect id="Rectangle_17" data-name="Rectangle 17" width="692.289" height="140.804" fill="#ea3c00"/>
                    <rect id="Rectangle_18" data-name="Rectangle 18" width="663.392" height="111.907" transform="translate(14.449 14.449)" fill="none" stroke="#000" stroke-width="30"/>
                  </g>
                  <g id="Rectangle_178-2" transform="translate(529.367 1218.789)">
                    <rect id="Rectangle_19" data-name="Rectangle 19" width="633.622" height="211.209" fill="#ea3c00"/>
                    <rect id="Rectangle_20" data-name="Rectangle 20" width="604.725" height="182.312" transform="translate(14.449 14.449)" fill="none" stroke="#000" stroke-width="30"/>
                  </g>
                  <g id="Rectangle_179-2" transform="translate(470.7 1054.515)">
                    <rect id="Rectangle_21" data-name="Rectangle 21" width="692.289" height="176.007" fill="#ea3c00"/>
                    <rect id="Rectangle_22" data-name="Rectangle 22" width="663.392" height="147.11" transform="translate(14.449 14.449)" fill="none" stroke="#000" stroke-width="30"/>
                  </g>
                  <g id="Path_2069-2" transform="translate(170.089 707.731)">
                    <path id="Path_13" data-name="Path 13" d="M2925.069,976.189v196.8H2239.282v47.021l-179.395,92.3V1082.427s-67.041,30.475-97.5-31.348c-14.969-30.417,2.543-77.756,0-127.147-2.255-43.623-24.39-88.818-24.39-88.818s101.43-35.254,179.394,0c77.907,35.254,132.349,141.064,132.349,141.064Z" transform="translate(-1938 -819.445)" fill="#ea3c00" stroke="#000" stroke-width="30"/>
                  </g>
                  <g id="Path_2070-2" transform="translate(477.958 728.306)">
                    <path id="Path_14" data-name="Path 14" d="M2617.2,959.293V821.2H1938V956.312Z" transform="translate(-1938 -821.2)" fill="#ea3c00" stroke="#000" stroke-width="30"/>
                  </g>
                  <g id="Path_2071-2" transform="translate(647.758 589.756)">
                    <path id="Path_15" data-name="Path 15" d="M2447.341,809.391V947.479H1938V812.489Z" transform="translate(-1938 -809.391)" fill="#ea3c00" stroke="#000" stroke-width="30"/>
                  </g>
                  <g id="Path_2072-2" transform="translate(730.808)">
                    <path id="Path_16" data-name="Path 16" d="M2364.849,759.13V1345.9h-391.5L1938.5,1140.937l166.1,128.609s-104.839-117.56-72.3-245.158c11.675-46.062,132.581-61.625,132.581-61.625l69.7-203.627Z" transform="translate(-1938.5 -759.13)" fill="#ea3c00" stroke="#000" stroke-width="30"/>
                  </g>
                </g>
                <g id="Group_591" transform="translate(0 3368.494)">
                  <g id="Path_2062" transform="translate(0 645.377)">
                    <path id="Path_17" data-name="Path 17" d="M6334.326,1421.893H1685.7V1100.21H6334.268Z" transform="translate(-1685.699 -1100.21)" fill="#ea3c00" stroke="#000" stroke-width="30"/>
                  </g>
                  <g id="Path_2063" transform="translate(196.847 316.828)">
                    <path id="Path_18" data-name="Path 18" d="M5917.455,1421.893H1685.7V1100.21H5917.455Z" transform="translate(-1685.699 -1100.21)" fill="#ea3c00" stroke="#000" stroke-width="30"/>
                  </g>
                  <g id="Path_2064" transform="translate(349.019)">
                    <rect id="Rectangle_23" data-name="Rectangle 23" width="3888.284" height="321.689" fill="#ea3c00" stroke="#000" stroke-width="30"/>
                  </g>
                </g>
                <g id="buku" transform="translate(977.326 2864.823)">
                  <g id="Group_592" transform="translate(0 0)">
                    <g id="Path_2065">
                      <path id="Path_19" data-name="Path 19" d="M3092.035,1968.964s-124.432-123.044-450.622-80.912c-182.977,23.58-392.308,113.739-573.9,172.169a1907.862,1907.862,0,0,1-298.449,68.89c-5.028,0,270.188-983.2,270.188-983.2s61.089,23.753,324.688,0c126.281-11.385,263.6-113.739,446-137.492,182.456-23.753,283.712,42.479,283.712,42.479Z" transform="translate(-1768.998 -1003.28)" fill="#fff" stroke="#000" stroke-width="30"/>
                    </g>
                    <g id="Path_2066" transform="translate(259.968 52.907)">
                      <path id="Path_20" data-name="Path 20" d="M1791.149,1143.426s18.726,23.753,283.654,0c138.533-12.426,326.249-106.457,520.206-130.21,193.958-23.811,260.71,38.491,260.71,38.491" transform="translate(-1791.149 -1007.792)" fill="#fff" stroke="#000" stroke-width="30"/>
                    </g>
                  </g>
                  <g id="Group_593" transform="translate(1325.926 0)">
                    <g id="Path_2065-2">
                      <path id="Path_21" data-name="Path 21" d="M1770.619,1968.964s124.373-122.986,450.563-80.912c182.978,23.58,392.365,113.739,573.956,172.169a1898.367,1898.367,0,0,0,298.448,68.89c5.029,0-270.187-983.2-270.187-983.2s-61.146,23.753-324.746,0c-126.223-11.385-263.6-113.739-446-137.492S1769,1050.9,1769,1050.9Z" transform="translate(-1769 -1003.28)" fill="#fff" stroke="#000" stroke-width="30"/>
                    </g>
                    <g id="Path_2066-2" transform="translate(0.174 52.907)">
                      <path id="Path_22" data-name="Path 22" d="M2855.72,1143.426s-18.783,23.753-283.653,0c-138.533-12.426-326.25-106.457-520.265-130.21-193.958-23.811-260.652,38.491-260.652,38.491" transform="translate(-1791.149 -1007.792)" fill="#fff" stroke="#000" stroke-width="30"/>
                    </g>
                  </g>
                </g>
              </g>
              <g id="Group_596" transform="translate(1877.656)">
                <g id="Exclusion_1" transform="translate(416.623 1284.559)">
                  <path id="Path_23" data-name="Path 23" d="M137.376,699.444H6.067C5.7,699.109-2.6,690.988.831,662.068c3.208-27.013,17.754-78.184,68.631-168.505,22.632-40.19,58.257-70.081,99.487-104.7,44.5-37.341,94.916-79.669,138.232-144.341a599.115,599.115,0,0,0,77.41-168.534A457.563,457.563,0,0,0,400.011,0a1.238,1.238,0,0,1,.075.353,1221.519,1221.519,0,0,1,10.981,145.763,1036.381,1036.381,0,0,1-6.282,137.342,600.1,600.1,0,0,1-31.943,139.92,484.8,484.8,0,0,1-64.493,116.906,631.841,631.841,0,0,1-77.86,86.691,626.651,626.651,0,0,1-93.112,72.457Zm177.29-344.587c-.838.728-77.93,67.683-131.91,129.841a745.189,745.189,0,0,0-85.536,120.57c1.006-.5,106.266-53.847,159.726-115.415a245.806,245.806,0,0,0,49.241-90.974A209.454,209.454,0,0,0,314.666,354.857Z" transform="translate(-0.001)" fill="#ea3c00" stroke="#000" stroke-width="30"/>
                </g>
                <g id="Exclusion_2" transform="translate(397.203 818.165)">
                  <path id="Path_24" data-name="Path 24" d="M32.264,1086.746c-.746-1.063-18.286-26.643-27.163-84.894A526.622,526.622,0,0,1,1.7,886.16,936.259,936.259,0,0,1,32.264,713.181C47.961,654.318,85.521,598.7,129.011,534.3c42.745-63.279,91.188-135.031,127.4-224.12a919.179,919.179,0,0,0,60-221.93A538.083,538.083,0,0,0,322.061,0l.092.225a1064.2,1064.2,0,0,1,36.133,170.713,1110.741,1110.741,0,0,1,9.623,174.828,866.7,866.7,0,0,1-27.741,199.87A1033.137,1033.137,0,0,1,261.493,744.8,1685.226,1685.226,0,0,1,159.047,918.074,1870.256,1870.256,0,0,1,32.269,1086.735ZM255.592,532.389c-.185.156-15.893,13.8-60.291,80.386C150.765,679.58,76.823,800.457,76.077,801.67a234.022,234.022,0,0,0,105.839-88.425C226.291,646.666,255.3,533.539,255.592,532.389Z" transform="translate(0.014)" fill="#ea3c00" stroke="#000" stroke-width="30"/>
                </g>
                <g id="Exclusion_3" transform="translate(75.668)">
                  <path id="Path_25" data-name="Path 25" d="M321.617,1717.981a326.061,326.061,0,0,1-46.282-25.69,542.137,542.137,0,0,1-103.92-88.737,615.492,615.492,0,0,1-109.11-169.268C27.565,1354.9,6.753,1264.949.465,1167.005c-5.779-89.9,44.045-199.8,101.753-327.052C155.568,722.313,216.032,589,241.5,447.675c27.163-150.7,17.408-264.4,4.427-333.242C231.781,39.549,211.073.387,210.871,0a1.126,1.126,0,0,1,.26.139,598.882,598.882,0,0,1,55.032,38.722,895.618,895.618,0,0,1,123.72,117.658A840.8,840.8,0,0,1,518.8,354.724a786.7,786.7,0,0,1,70.867,280.435c9.756,151.352-43.721,298.063-100.337,453.385-19.274,52.882-39.2,107.555-56.546,162.633C361.119,1478.886,322,1715.6,321.617,1717.964ZM359.044,594.206c0,.769-3.41,79.82-37.809,217.648-16.911,67.758-38.011,130.667-56.638,186.173-20.141,60.048-37.532,111.9-45.178,155.594-18.864,107.844-19.615,177.059-16.928,216.151,2.924,42.461,10.4,59.384,10.461,59.528,0-.064.1-.491.295-1.26,6.935-28.013,31.683-126.783,59.372-221.762,7.635-26.2,15.6-52.142,23.3-77.219,22.626-73.665,44-143.249,56.87-216.833,18.864-107.844,19.558-188.571,16.812-237.3a429.158,429.158,0,0,0-10.559-80.71Z" transform="translate(-0.008)" fill="#ea3c00" stroke="#000" stroke-width="30"/>
                </g>
                <g id="Exclusion_4" transform="translate(0 1291.373)">
                  <path id="Path_26" data-name="Path 26" d="M436.516,692.63A533.247,533.247,0,0,1,378.143,671.7a665.329,665.329,0,0,1-127.916-70.561C156.011,533.886,108.822,498.424,65.76,427.909A434.342,434.342,0,0,1,13,288,691.122,691.122,0,0,1,.019,149.023,817.759,817.759,0,0,1,13.571,0,436.619,436.619,0,0,0,34.181,76.485a495.211,495.211,0,0,0,90.887,156.721c48.333,55.153,104.6,85.333,154.259,111.965,46.7,25.042,87.038,46.675,109.069,82.738a473.707,473.707,0,0,1,52.125,114.433,275.041,275.041,0,0,1,11.588,82.883,175.706,175.706,0,0,1-8.23,50.391,86.26,86.26,0,0,1-7.346,17.009ZM41.174,255.191c.249.422,25.1,43.75,60.106,96.661,32.365,48.882,80.27,116.242,124.882,159.558,77.664,75.41,145.474,79.248,158.287,79.248,1.387,0,2.138-.046,2.173-.046a4.432,4.432,0,0,0-.4-.353c-7.646-6.906-36.145-32.659-80.571-74.734-18.205-17.252-38.462-36.688-58.569-56.2C161.715,376.42,42.578,256.607,41.174,255.191Z" transform="translate(0.004)" fill="#ea3c00" stroke="#000" stroke-width="30"/>
                </g>
              </g>
            </g>
          </g>
          <g id="Group_599" transform="translate(2528.504 6032.163)">
            <g id="Ellipse_328" transform="translate(0 0)">
              <circle id="Ellipse_1" data-name="Ellipse 1" cx="281.608" cy="281.608" r="281.608" fill="none"/>
              <circle id="Ellipse_2" data-name="Ellipse 2" cx="252.711" cy="252.711" r="252.711" transform="translate(28.897 28.897)" fill="none" stroke="#fe0" stroke-width="30"/>
            </g>
            <g id="Ellipse_329" transform="translate(328.543 246.406)">
              <circle id="Ellipse_3" data-name="Ellipse 3" cx="281.608" cy="281.608" r="281.608" transform="translate(0 0)" fill="none"/>
              <circle id="Ellipse_4" data-name="Ellipse 4" cx="252.711" cy="252.711" r="252.711" transform="translate(28.897 28.897)" fill="none" stroke="#fe0" stroke-width="30"/>
            </g>
            <g id="Ellipse_330" transform="translate(692.289 70.405)">
              <circle id="Ellipse_5" data-name="Ellipse 5" cx="281.608" cy="281.608" r="281.608" transform="translate(0 0)" fill="none"/>
              <circle id="Ellipse_6" data-name="Ellipse 6" cx="252.711" cy="252.711" r="252.711" transform="translate(28.897 28.897)" fill="none" stroke="#fe0" stroke-width="30"/>
            </g>
            <g id="Ellipse_331" transform="translate(1085.458 246.406)">
              <circle id="Ellipse_7" data-name="Ellipse 7" cx="281.608" cy="281.608" r="281.608" transform="translate(5.779 0)" fill="none"/>
              <g id="Group_2" data-name="Group 2" transform="translate(0 28.897)">
                <circle id="Ellipse_8" data-name="Ellipse 8" cx="252.711" cy="252.711" r="252.711" fill="none" stroke="#fe0" stroke-width="30"/>
              </g>
            </g>
            <g id="Ellipse_332" transform="translate(1408.401 0)">
              <circle id="Ellipse_9" data-name="Ellipse 9" cx="281.608" cy="281.608" r="281.608" transform="translate(23.118)" fill="none"/>
              <g id="Group_3" data-name="Group 3" transform="translate(0 28.897)">
                <circle id="Ellipse_10" data-name="Ellipse 10" cx="252.711" cy="252.711" r="252.711" transform="translate(0)" fill="none" stroke="#fe0" stroke-width="30"/>
              </g>
            </g>
          </g>
          <g id="Group_602" transform="translate(0 472.277)">
            <g id="Path_2086" transform="matrix(0.956, 0.292, -0.292, 0.956, 868.628, 3342.797)">
              <path id="Path_27" data-name="Path 27" d="M.272,544.5S87.1,533.441,156.265,397.341,276.939,0,276.939,0,128.3,143.486,59.136,279.609A548.07,548.07,0,0,0,.272,544.5Z" transform="translate(0)" fill="#fdfe74" stroke="#000" stroke-width="30"/>
            </g>
            <g id="Path_2083" transform="translate(575.462 705.391)">
              <path id="Path_28" data-name="Path 28" d="M1920.239,4409.614s-647.3-1538.369,0-2345.333c245.974-306.662,756.527-790.187,1160.048-1345" transform="translate(-1632.552 -719.281)" fill="none" stroke="#000" stroke-linecap="round" stroke-width="30"/>
            </g>
            <g id="Path_2082" transform="translate(0 4203.122)">
              <path id="Path_29" data-name="Path 29" d="M2964.035,1972.64s-101.255-133.678-138.475-243.834,6.473-144.37-10.461-196.789c-49.7-154.2-46.467-132.233-49.992-176.158-18.667-230.079,124.315-303.419,124.315-303.419s-136.278-.81-246.724,42.421c-110.444,43.288-195.056,130.615-195.056,130.615s-94.9-129.748-245.567-173.036-279.609-60.279-441.491,31.324c-161.882,91.546-200.314,305.327-165,466.631,35.255,161.247,320.816,200.142,320.816,200.142s-147.2-254.814-85.362-347.343c61.782-92.529,237.015-63.516,332.549-22.886,197.425,83.975,322.723,481.889,446,525.292C2895.607,2006.334,2964.035,1972.64,2964.035,1972.64Z" transform="translate(-1583.511 -1017.373)" fill="#00904a" stroke="#000" stroke-width="30"/>
            </g>
            <g id="Path_2084" transform="translate(806.472 3641.231)">
              <path id="Path_30" data-name="Path 30" d="M1652.535,1513.988s86.806-11.038,155.986-147.144C1877.7,1230.681,1929.2,969.486,1929.2,969.486s-148.647,143.486-217.77,279.632A547.571,547.571,0,0,0,1652.535,1513.988Z" transform="translate(-1652.264 -969.486)" fill="#fdfe74" stroke="#000" stroke-width="30"/>
            </g>
            <g id="Path_2085" transform="translate(108.882 3815.232) rotate(-24)">
              <path id="Path_31" data-name="Path 31" d="M483.287,544.5S331.612,533.441,210.793,397.341,0,0,0,0,259.635,143.486,380.454,279.609,483.287,544.5,483.287,544.5Z" fill="#fdfe74" stroke="#000" stroke-width="30"/>
            </g>
            <g id="Path_2087" transform="translate(896.75 2912.525) rotate(23.003)">
              <path id="Path_32" data-name="Path 32" d="M.753,669.876S121.462,656.295,217.614,488.83,385.38,0,385.38,0,178.748,176.521,82.6,343.992.753,669.876.753,669.876Z" transform="translate(0 0)" fill="#fdfe74" stroke="#000" stroke-width="30"/>
            </g>
            <g id="Path_2088" transform="translate(653.075 3763.824) rotate(156.997)">
              <path id="Path_33" data-name="Path 33" d="M.753,0S121.462,13.582,217.62,181.046s167.765,488.83,167.765,488.83S178.748,493.355,82.6,325.885.753,0,.753,0Z" transform="translate(0 0)" fill="#fdfe74" stroke="#000" stroke-width="30"/>
            </g>
            <g id="Path_2089" transform="matrix(-0.946, 0.326, -0.326, -0.946, 600.869, 3432.743)">
              <path id="Path_34" data-name="Path 34" d="M.753,0S121.462,13.582,217.62,181.046s167.765,488.83,167.765,488.83S178.748,493.355,82.6,325.885.753,0,.753,0Z" transform="translate(0)" fill="#fdfe74" stroke="#000" stroke-width="30"/>
            </g>
            <g id="Path_2090" transform="translate(554.247 3120.181) rotate(175.008)">
              <path id="Path_35" data-name="Path 35" d="M.753,0S121.462,13.582,217.62,181.046s167.765,488.83,167.765,488.83S178.748,493.355,82.6,325.885.753,0,.753,0Z" transform="translate(0 0)" fill="#fdfe74" stroke="#000" stroke-width="30"/>
            </g>
            <g id="Path_2091" transform="translate(577.711 2732.965) rotate(175.008)">
              <path id="Path_36" data-name="Path 36" d="M.753,0S121.462,13.582,217.62,181.046s167.765,488.83,167.765,488.83S178.748,493.355,82.6,325.885.753,0,.753,0Z" transform="translate(0 0)" fill="#fdfe74" stroke="#000" stroke-width="30"/>
            </g>
            <g id="Path_2092" transform="translate(775.148 2148.023) rotate(-169)">
              <path id="Path_37" data-name="Path 37" d="M.753,0S121.462,13.582,217.62,181.046s167.765,488.83,167.765,488.83S178.748,493.355,82.6,325.885.753,0,.753,0Z" transform="translate(0)" fill="#fdfe74" stroke="#000" stroke-width="30"/>
            </g>
            <g id="Path_2093" transform="translate(642.262 2417.327) rotate(-173.976)">
              <path id="Path_38" data-name="Path 38" d="M.753,0S121.462,13.582,217.62,181.046s167.765,488.83,167.765,488.83S178.748,493.355,82.6,325.885.753,0,.753,0Z" transform="translate(0)" fill="#fdfe74" stroke="#000" stroke-width="30"/>
            </g>
            <g id="Path_2094" transform="matrix(-0.961, -0.276, 0.276, -0.961, 942.289, 1934.607)">
              <path id="Path_39" data-name="Path 39" d="M.753,0S121.462,13.582,217.62,181.046s167.765,488.83,167.765,488.83S178.748,493.355,82.6,325.885.753,0,.753,0Z" transform="translate(0 0)" fill="#fdfe74" stroke="#000" stroke-width="30"/>
            </g>
            <g id="Path_2095" transform="translate(1150.574 1682.034) rotate(-160.007)">
              <path id="Path_40" data-name="Path 40" d="M.753,0S121.462,13.582,217.62,181.046s167.765,488.83,167.765,488.83S178.748,493.355,82.6,325.885.753,0,.753,0Z" transform="translate(0 0)" fill="#fdfe74" stroke="#000" stroke-width="30"/>
            </g>
            <g id="Path_2096" transform="translate(1335.065 1498.006) rotate(-156)">
              <path id="Path_41" data-name="Path 41" d="M.753,0S121.462,13.582,217.62,181.046s167.765,488.83,167.765,488.83S178.748,493.355,82.6,325.885.753,0,.753,0Z" transform="translate(0)" fill="#fdfe74" stroke="#000" stroke-width="30"/>
            </g>
            <g id="Path_2097" transform="translate(1558.006 1251.594) rotate(-156)">
              <path id="Path_42" data-name="Path 42" d="M.753,0S121.462,13.582,217.62,181.046s167.765,488.83,167.765,488.83S178.748,493.355,82.6,325.885.753,0,.753,0Z" transform="translate(0)" fill="#fdfe74" stroke="#000" stroke-width="30"/>
            </g>
            <g id="Path_2098" transform="translate(1745.745 1016.92) rotate(-156)">
              <path id="Path_43" data-name="Path 43" d="M.753,0S121.462,13.582,217.62,181.046s167.765,488.83,167.765,488.83S178.748,493.355,82.6,325.885.753,0,.753,0Z" transform="translate(0)" fill="#fdfe74" stroke="#000" stroke-width="30"/>
            </g>
            <g id="Path_2099" transform="translate(2046.656 700.913) rotate(-125.025)">
              <path id="Path_44" data-name="Path 44" d="M.753,0S121.462,13.582,217.62,181.046s167.765,488.83,167.765,488.83S178.748,493.355,82.6,325.885.753,0,.753,0Z" transform="translate(0 0)" fill="#fdfe74" stroke="#000" stroke-width="30"/>
            </g>
            <g id="Path_2100" transform="matrix(-0.848, -0.53, 0.53, -0.848, 1938.275, 772.312)">
              <path id="Path_45" data-name="Path 45" d="M.753,0S121.462,13.582,217.62,181.046s167.765,488.83,167.765,488.83S178.748,493.355,82.6,325.885.753,0,.753,0Z" transform="translate(0)" fill="#fdfe74" stroke="#000" stroke-width="30"/>
            </g>
            <g id="Path_2101" transform="translate(1974.013 828.213) rotate(-79)">
              <path id="Path_46" data-name="Path 46" d="M.754,0S121.464,13.582,217.622,181.046s167.765,488.83,167.765,488.83S178.749,493.355,82.591,325.885.754,0,.754,0Z" transform="translate(0 0)" fill="#fdfe74" stroke="#000" stroke-width="30"/>
            </g>
            <g id="Path_2102" transform="translate(984.233 2618.549) rotate(36)">
              <path id="Path_47" data-name="Path 47" d="M.753,669.876S121.462,656.295,217.614,488.83,385.38,0,385.38,0,178.748,176.521,82.6,343.992.753,669.876.753,669.876Z" transform="translate(0 0)" fill="#fdfe74" stroke="#000" stroke-width="30"/>
            </g>
            <g id="Path_2103" transform="translate(1047.64 2343.332) rotate(42)">
              <path id="Path_48" data-name="Path 48" d="M.753,669.876S121.462,656.295,217.614,488.83,385.38,0,385.38,0,178.748,176.521,82.6,343.992.753,669.876.753,669.876Z" transform="translate(0)" fill="#fdfe74" stroke="#000" stroke-width="30"/>
            </g>
            <g id="Path_2104" transform="matrix(0.643, 0.766, -0.766, 0.643, 1169.84, 2053.193)">
              <path id="Path_49" data-name="Path 49" d="M.753,669.876S121.462,656.295,217.614,488.83,385.38,0,385.38,0,178.748,176.521,82.6,343.992.753,669.876.753,669.876Z" transform="translate(0)" fill="#fdfe74" stroke="#000" stroke-width="30"/>
            </g>
            <g id="Path_2105" transform="matrix(0.643, 0.766, -0.766, 0.643, 1287.174, 1783.317)">
              <path id="Path_50" data-name="Path 50" d="M.753,669.876S121.462,656.295,217.614,488.83,385.38,0,385.38,0,178.748,176.521,82.6,343.992.753,669.876.753,669.876Z" transform="translate(0)" fill="#fdfe74" stroke="#000" stroke-width="30"/>
            </g>
            <g id="Path_2106" transform="translate(1588.178 1502.916) rotate(54.975)">
              <path id="Path_51" data-name="Path 51" d="M.753,669.876S121.462,656.295,217.614,488.83,385.38,0,385.38,0,178.748,176.521,82.6,343.992.753,669.876.753,669.876Z" transform="translate(0 0)" fill="#fdfe74" stroke="#000" stroke-width="30"/>
            </g>
            <g id="Path_2107" transform="translate(1799.388 1256.51) rotate(54.975)">
              <path id="Path_52" data-name="Path 52" d="M.753,669.876S121.462,656.295,217.614,488.83,385.38,0,385.38,0,178.748,176.521,82.6,343.992.753,669.876.753,669.876Z" transform="translate(0 0)" fill="#fdfe74" stroke="#000" stroke-width="30"/>
            </g>
            <g id="Path_2108" transform="translate(2116.198 904.497) rotate(54.975)">
              <path id="Path_53" data-name="Path 53" d="M.753,669.876S121.462,656.295,217.614,488.83,385.38,0,385.38,0,178.748,176.521,82.6,343.992.753,669.876.753,669.876Z" transform="translate(0 0)" fill="#fdfe74" stroke="#000" stroke-width="30"/>
            </g>
            <g id="Path_2122" transform="translate(2312.699 667.54) rotate(54.975)">
              <path id="Path_54" data-name="Path 54" d="M.753,669.876S121.462,656.295,217.614,488.83,385.38,0,385.38,0,178.748,176.521,82.6,343.992.753,669.876.753,669.876Z" transform="translate(0 0)" fill="#fdfe74" stroke="#000" stroke-width="30"/>
            </g>
          </g>
          <g id="Path_2109" transform="translate(6092.377 4697.213)">
            <path id="Path_55" data-name="Path 55" d="M2102.729,1163.773l107.96-144.543" transform="translate(-2102.729 -1019.23)" fill="none" stroke="#000" stroke-width="30"/>
          </g>
          <g id="Group_612" transform="translate(4569.492 533.942)">
            <g id="Group_611" transform="matrix(0.358, -0.934, 0.934, 0.358, 0, 607.472)">
              <g id="Path_2111" transform="translate(122.577 0)">
                <path id="Path_56" data-name="Path 56" d="M35.144,422.683S-26.818,253.791,13.806,148.669,179.843-11.993,197.655,2.184c37.341,29.729,6.565,232.651,6.565,232.651S266.188,139.619,347.03,84.9,527.6,15.968,527.6,15.968s11.49,86.6-73.867,218.867c-13.293,20.552-170.719,177.5-170.719,177.5S384.377,354.18,443.859,372.7s95,93.95,77.173,113.745c-30.359,33.7-90.28,57.731-174,72.382s-160.87-13.784-160.87-13.784Z" transform="translate(0)" fill="#fff" stroke="#000" stroke-width="30"/>
              </g>
              <g id="Path_2110" transform="translate(0 149.143)">
                <path id="Path_57" data-name="Path 57" d="M477.86,430.839S340.8,556.64,233.281,548.029,86.6,435.255,47.784,396.371C-59.73,288.659,47.784,0,47.784,0s27.741,99.8,55.76,170.123a607.166,607.166,0,0,0,56.338,111.15L334.727,162.98,283.244,374.073s12.536,18.442,61.187,32.631S477.86,430.839,477.86,430.839Z" transform="translate(0 0)" fill="#00904a" stroke="#000" stroke-width="30"/>
              </g>
            </g>
            <g id="Group_610" transform="matrix(0.358, -0.934, 0.934, 0.358, 241.595, 985.39)">
              <g id="Path_2111-2" transform="translate(139.516 0)">
                <path id="Path_58" data-name="Path 58" d="M39.988,481.057S-30.521,288.845,15.715,169.2,204.673-13.65,224.947,2.486c42.5,33.833,7.473,264.785,7.473,264.785S302.929,158.906,394.955,96.633,600.472,18.177,600.472,18.177,613.55,116.734,516.4,267.27c-15.113,23.389-194.31,202.02-194.31,202.02s115.357-66.2,183.087-45.114,108.075,106.919,87.8,129.459c-34.538,38.358-102.752,65.706-198.032,82.38s-183.087-15.691-183.087-15.691Z" transform="translate(0)" fill="#fff" stroke="#000" stroke-width="30"/>
              </g>
              <g id="Path_2110-2" transform="translate(0 169.743)">
                <path id="Path_59" data-name="Path 59" d="M543.846,490.338s-156,143.18-278.36,133.372-166.921-128.344-211.1-172.6C-67.982,328.526,54.386,0,54.386,0S85.953,113.589,117.85,193.611s64.117,126.512,64.117,126.512l198.986-134.6L322.36,425.73S336.63,446.715,392,462.869,543.846,490.338,543.846,490.338Z" transform="translate(0 0)" fill="#00904a" stroke="#000" stroke-width="30"/>
              </g>
            </g>
            <g id="Group_609" transform="translate(479.621 1446.099) rotate(-79)">
              <g id="Path_2111-3" transform="translate(61.321 0)">
                <path id="Path_60" data-name="Path 60" d="M50.7,609.766S-38.69,366.123,19.919,214.454,259.447-17.3,285.143,3.152c53.876,42.883,9.472,335.623,9.472,335.623s89.4-137.354,206.025-216.289S761.125,23.039,761.125,23.039,777.7,147.967,654.569,338.775c-19.136,29.648-246.285,256.069-246.285,256.069s146.22-83.906,232.073-57.182S777.365,673.2,751.658,701.746c-43.779,48.622-130.245,83.282-251.012,104.417s-232.073-19.887-232.073-19.887Z" transform="translate(0)" fill="#fff" stroke="#000" stroke-width="30"/>
              </g>
              <g id="Path_2110-3" transform="translate(0 132.941)">
                <path id="Path_61" data-name="Path 61" d="M689.369,621.531S491.637,803.005,336.529,790.585,124.926,627.9,68.941,571.805C-86.173,416.425,68.935,0,68.935,0s40.017,143.977,80.438,245.423,81.282,160.344,81.282,160.344L482.87,235.125,408.6,539.637s18.084,26.585,88.269,47.073S689.369,621.531,689.369,621.531Z" transform="translate(0 0)" fill="#00904a" stroke="#000" stroke-width="30"/>
              </g>
            </g>
            <g id="Path_2082-2" transform="translate(1073.124 4141.457)">
              <path id="Path_62" data-name="Path 62" d="M1583.51,1972.64s101.255-133.678,138.475-243.834-6.473-144.37,10.461-196.789c49.761-154.2,46.466-132.233,49.992-176.158,18.668-230.079-124.315-303.419-124.315-303.419s136.278-.81,246.724,42.421c110.5,43.288,195.056,130.615,195.056,130.615s94.9-129.748,245.567-173.036c150.729-43.288,279.609-60.279,441.491,31.324,161.882,91.546,200.314,305.327,165.061,466.631-35.255,161.247-320.816,200.142-320.816,200.142s147.145-254.814,85.362-347.343c-61.84-92.529-237.072-63.516-332.606-22.886-197.367,83.975-322.723,481.889-446,525.292C1651.938,2006.334,1583.51,1972.64,1583.51,1972.64Z" transform="translate(-1583.51 -1017.373)" fill="#00904a" stroke="#000" stroke-width="30"/>
            </g>
            <g id="Group_608" transform="matrix(0.358, -0.934, 0.934, 0.358, 785.349, 1759.69)">
              <g id="Path_2111-4" transform="translate(174.087 0)">
                <path id="Path_63" data-name="Path 63" d="M49.912,600.315s-88-239.846-30.3-389.158S255.412-17.021,280.72,3.1c53.038,42.219,9.322,330.416,9.322,330.416s88.009-135.21,202.829-212.92S749.31,22.69,749.31,22.69s16.321,122.986-104.9,310.835c-18.841,29.186-242.459,252.1-242.459,252.1S545.9,503.018,630.421,529.332,765.3,662.761,739.994,690.872c-43.1,47.871-128.222,81.993-247.123,102.8S264.4,774.09,264.4,774.09Z" transform="translate(0)" fill="#fff" stroke="#000" stroke-width="30"/>
              </g>
              <g id="Path_2110-4" transform="translate(0 211.827)">
                <path id="Path_64" data-name="Path 64" d="M678.673,611.885S484.01,790.557,331.329,778.333,122.993,618.156,67.868,562.916C-84.836,409.947,67.868,0,67.868,0s39.393,141.746,79.178,241.615,80.028,157.859,80.028,157.859l248.307-168L402.249,531.262s17.806,26.192,86.905,46.345S678.673,611.885,678.673,611.885Z" transform="translate(0 0)" fill="#00904a" stroke="#000" stroke-width="30"/>
              </g>
            </g>
            <g id="Group_607" transform="translate(1108.304 2115.096) rotate(-60)">
              <g id="Path_2111-5" transform="translate(184.923 0)">
                <path id="Path_65" data-name="Path 65" d="M53.029,622.483S-40.448,373.759,20.814,218.945,271.335-17.664,298.227,3.217c56.338,43.779,9.9,342.628,9.9,342.628s93.494-140.226,215.457-220.8S795.98,23.52,795.98,23.52s17.338,127.535-111.439,322.324c-20.014,30.267-257.56,261.409-257.56,261.409S579.9,521.6,669.682,548.882,812.96,687.241,786.074,716.392c-45.785,49.64-136.21,85.021-262.507,106.6s-242.678-20.3-242.678-20.3Z" transform="translate(0)" fill="#fff" stroke="#000" stroke-width="30"/>
              </g>
              <g id="Path_2110-5" transform="translate(0 219.645)">
                <path id="Path_66" data-name="Path 66" d="M720.939,634.5S514.151,819.777,351.968,807.086,130.651,641,72.094,583.722C-90.117,425.094,72.094,0,72.094,0s41.849,146.982,84.125,250.544,85,163.691,85,163.691l263.773-174.2L427.315,550.9s18.916,27.163,92.321,48.056S720.939,634.5,720.939,634.5Z" fill="#00904a" stroke="#000" stroke-width="30"/>
              </g>
            </g>
            <g id="Group_606" transform="matrix(0.695, -0.719, 0.719, 0.695, 1448.179, 2429.08)">
              <g id="Path_2111-6" transform="translate(175.564 0)">
                <path id="Path_67" data-name="Path 67" d="M50.339,577.069s-88.76-230.576-30.556-374.1S257.613-16.374,283.129,2.982c53.494,40.589,9.4,317.632,9.4,317.632s88.766-129.991,204.592-204.7S755.747,21.805,755.747,21.805s16.454,118.23-105.81,298.8c-19,28.071-244.545,242.355-244.545,242.355s145.2-79.409,230.437-54.113S771.866,637.112,746.338,664.131c-43.473,46.016-129.326,78.82-249.244,98.828s-230.432-18.824-230.432-18.824Z" transform="translate(0)" fill="#fff" stroke="#000" stroke-width="30"/>
              </g>
              <g id="Path_2110-6" transform="translate(0 203.62)">
                <path id="Path_68" data-name="Path 68" d="M684.489,588.207S488.156,759.966,334.14,748.2s-210.1-153.964-265.7-207.048C-85.55,394.1,68.437,0,68.437,0s39.734,136.262,79.872,232.264,80.7,151.75,80.7,151.75l250.44-161.506L405.7,510.7s17.962,25.175,87.657,44.548S684.489,588.207,684.489,588.207Z" transform="translate(0 0)" fill="#00904a" stroke="#000" stroke-width="30"/>
              </g>
            </g>
            <g id="Group_605" transform="translate(1483.042 2806.415) rotate(-35.025)">
              <g id="Path_2111-7" transform="translate(175.564 0)">
                <path id="Path_69" data-name="Path 69" d="M50.339,577.069s-88.76-230.576-30.556-374.1S257.613-16.374,283.129,2.982c53.494,40.589,9.4,317.632,9.4,317.632s88.766-129.991,204.592-204.7S755.747,21.805,755.747,21.805s16.454,118.23-105.81,298.8c-19,28.071-244.545,242.355-244.545,242.355s145.2-79.409,230.437-54.113S771.866,637.112,746.338,664.131c-43.473,46.016-129.326,78.82-249.244,98.828s-230.432-18.824-230.432-18.824Z" transform="translate(0)" fill="#fff" stroke="#000" stroke-width="30"/>
              </g>
              <g id="Path_2110-7" transform="translate(0 203.62)">
                <path id="Path_70" data-name="Path 70" d="M684.489,588.207S488.156,759.966,334.14,748.2s-210.1-153.964-265.7-207.048C-85.55,394.1,68.437,0,68.437,0s39.734,136.262,79.872,232.264,80.7,151.75,80.7,151.75l250.44-161.506L405.7,510.7s17.962,25.175,87.657,44.548S684.489,588.207,684.489,588.207Z" transform="translate(0 0)" fill="#00904a" stroke="#000" stroke-width="30"/>
              </g>
            </g>
            <g id="Group_604" transform="translate(1524.11 3102.913) rotate(-12.007)">
              <g id="Path_2111-8" transform="translate(160.125 0)">
                <path id="Path_71" data-name="Path 71" d="M45.894,525.928S-35.018,315.8,18.026,185,234.9-14.922,258.173,2.716c48.778,36.988,8.577,289.463,8.577,289.463S347.7,173.7,453.292,105.637,689.15,19.87,689.15,19.87s15.027,107.746-96.516,272.309c-17.338,25.568-223,220.849-223,220.849s132.407-72.364,210.134-49.316S703.824,580.6,680.545,605.228C640.9,647.163,562.61,677.06,453.263,695.283s-210.134-17.153-210.134-17.153Z" transform="translate(0)" fill="#fff" stroke="#000" stroke-width="30"/>
              </g>
              <g id="Path_2110-8" transform="translate(0 185.566)">
                <path id="Path_72" data-name="Path 72" d="M624.178,536.048S445.143,692.572,304.7,681.857,113.121,541.532,62.418,493.164C-78.022,359.151,62.418,0,62.418,0s36.237,124.177,72.821,211.666,73.613,138.3,73.613,138.3L437.225,202.789,369.976,465.417s16.379,22.944,79.93,40.6S624.178,536.048,624.178,536.048Z" fill="#00904a" stroke="#000" stroke-width="30"/>
              </g>
            </g>
            <g id="Group_603" transform="translate(1447.846 3484.858)">
              <g id="Path_2111-9" transform="translate(130.06 0)">
                <path id="Path_73" data-name="Path 73" d="M2144.722,1387.549s-65.771-170.667-22.656-276.893,176.157-162.367,195.056-148.034c39.647,30.053,6.993,235.13,6.993,235.13s65.713-96.239,151.479-151.537,191.588-69.665,191.588-69.665,12.193,87.512-78.369,221.2c-14.1,20.749-181.127,179.336-181.127,179.336s107.555-58.777,170.666-40.052,100.736,94.956,81.837,114.953c-32.191,34.1-95.766,58.372-184.595,73.168s-170.666-13.929-170.666-13.929Z" transform="translate(-2107.415 -960.414)" fill="#fff" stroke="#000" stroke-width="30"/>
              </g>
              <g id="Path_2110-9" transform="translate(0 150.722)">
                <path id="Path_74" data-name="Path 74" d="M2603.3,1409.629s-145.412,127.147-259.439,118.478c-114.086-8.727-155.64-113.97-196.847-153.271-114.028-108.884,0-400.578,0-400.578s29.475,100.863,59.182,171.944a602.91,602.91,0,0,0,59.758,112.294l185.521-119.519L2396.854,1352.3s13.291,18.609,64.961,32.942C2513.425,1399.631,2603.3,1409.629,2603.3,1409.629Z" transform="translate(-2096.331 -974.259)" fill="#00904a" stroke="#000" stroke-width="30"/>
              </g>
            </g>
          </g>
          <g id="Path_2117" transform="translate(652.374 6132.788)">
            <path id="Path_75" data-name="Path 75" d="M1639.11,1149.094,2852.79,2023l2573.521,63L6488.8,1598.04l716.187-456.46-527.315,543.036,527.315-86.576L6331.37,2156.795,2426.615,2118.65l-787.5-514.6,575.631,145.295Z" transform="translate(-1639.11 -1141.58)" fill="#fff" stroke="#000" stroke-width="30"/>
          </g>
          <g id="Group_615" transform="translate(648.063 6021.009)">
            <g id="Group_614">
              <g id="Path_2116" transform="translate(4188.357 532.574)">
                <path id="Path_76" data-name="Path 76" d="M2340.375,1177.44l-638.686,97.094v105.995Z" transform="translate(-1701.689 -1177.44)" fill="#ea3c00" stroke="#000" stroke-width="30"/>
              </g>
              <g id="Path_2115" transform="translate(738.668 532.574)">
                <path id="Path_77" data-name="Path 77" d="M1701.689,1177.44l638.686,97.094v105.995Z" transform="translate(-1701.689 -1177.44)" fill="#ea3c00" stroke="#000" stroke-width="30"/>
              </g>
              <g id="Path_2112">
                <path id="Path_78" data-name="Path 78" d="M1638.74,1132.05s346.246,229.211,692.78,385.719c346.534,156.449,693.357,240.193,693.357,240.193l-717.746-109.925S3330.957,2088.95,4376.4,2094.209c1045.384,5.317,2112.381-424.961,2112.381-424.961l-664.808,96.516s449.929-144.428,791.205-298.623c341.217-154.253,573.781-318.273,573.781-318.273l-654.289,585.457L7211.9,1611.857,6534.667,1988.33s-975.915,481.022-2032.8,479.057c-1056.883-2.023-2194.736-487.033-2194.736-487.033L1638.74,1617.233l668.392,114.433Z" transform="translate(-1638.74 -1132.05)" fill="#ea3c00" stroke="#000" stroke-width="30"/>
              </g>
              <g id="Group_613" transform="translate(681.348 511.572)">
                <g id="Path_2114" transform="translate(0 400.283)">
                  <path id="Path_79" data-name="Path 79" d="M1697.02,1177.4v411.321s1214.489,396.643,2259.063,395.891c1044.574-.693,1910.217-395.891,1910.217-395.891V1178.556S4857.962,1564.68,3815.585,1564.39C2773.265,1564.044,1697.02,1177.4,1697.02,1177.4Z" transform="translate(-1697.02 -1177.4)" fill="#fff" stroke="#000" stroke-width="30"/>
                </g>
                <g id="Path_2113" transform="translate(0 0)">
                  <path id="Path_80" data-name="Path 80" d="M1697.02,1177.4v453.859s1214.489,437.618,2259.063,436.809C5000.657,2067.2,5866.3,1631.259,5866.3,1631.259v-452.53s-1008.337,426-2050.714,425.655C2773.265,1604.095,1697.02,1177.4,1697.02,1177.4Z" transform="translate(-1697.02 -1177.4)" fill="#ea3c00" stroke="#000" stroke-width="30"/>
                </g>
              </g>
            </g>
          </g>
        </g>
      </g>
    </g>
    <g id="Group_21" data-name="Group 21" transform="translate(3382.991 7694.281) rotate(9.647)">
      <g id="Group_5" data-name="Group 5" transform="translate(57.005 599.505) rotate(7.985)">
        <text id="S" transform="translate(0 330)" font-size="370" font-family="TimesNewRomanPS-BoldMT, Times New Roman" font-weight="700"><tspan x="0" y="0">S</tspan></text>
      </g>
      <g id="Group_6" data-name="Group 6" transform="matrix(0.995, 0.098, -0.098, 0.995, 248.089, 628.164)">
        <text id="M" transform="translate(0 327)" font-size="367" font-family="TimesNewRomanPS-BoldMT, Times New Roman" font-weight="700"><tspan x="0" y="0">M</tspan></text>
      </g>
      <g id="Group_7" data-name="Group 7" transform="translate(583.913 660.5) rotate(3.062)">
        <text id="A" transform="translate(0 327)" font-size="367" font-family="TimesNewRomanPS-BoldMT, Times New Roman" font-weight="700"><tspan x="0" y="0">A</tspan></text>
      </g>
      <g id="Group_8" data-name="Group 8" transform="translate(908.91 676.431) rotate(0.344)">
        <text id="N" transform="translate(0 327)" font-size="367" font-family="TimesNewRomanPS-BoldMT, Times New Roman" font-weight="700"><tspan x="0" y="0">N</tspan></text>
      </g>
      <g id="Group_9" data-name="Group 9" transform="translate(1166.269 677.974) rotate(-1.684)">
        <text id="E" transform="translate(0 330)" font-size="370" font-family="TimesNewRomanPS-BoldMT, Times New Roman" font-weight="700"><tspan x="0" y="0">E</tspan></text>
      </g>
      <g id="Group_10" data-name="Group 10" transform="translate(1401.702 671.707) rotate(-3.943)">
        <text id="G" transform="translate(0 330)" font-size="370" font-family="TimesNewRomanPS-BoldMT, Times New Roman" font-weight="700"><tspan x="0" y="0">G</tspan></text>
      </g>
      <g id="Group_11" data-name="Group 11" transform="translate(1678.351 652.5) rotate(-6.096)">
        <text id="E-2" data-name="E" transform="translate(0 330)" font-size="370" font-family="TimesNewRomanPS-BoldMT, Times New Roman" font-weight="700"><tspan x="0" y="0">E</tspan></text>
      </g>
      <g id="Group_12" data-name="Group 12" transform="translate(1912.712 627.965) rotate(-8.415)">
        <text id="R" transform="translate(0 330)" font-size="370" font-family="TimesNewRomanPS-BoldMT, Times New Roman" font-weight="700"><tspan x="0" y="0">R</tspan></text>
      </g>
      <g id="Group_13" data-name="Group 13" transform="translate(2168.239 589.453) rotate(-10.218)">
        <text id="I" transform="translate(0 330)" font-size="370" font-family="TimesNewRomanPS-BoldMT, Times New Roman" font-weight="700"><tspan x="0" y="0">I</tspan></text>
      </g>
      <g id="Group_14" data-name="Group 14" transform="translate(2388.719 548.422) rotate(-12.637)">
        <text id="_1" data-name="1" transform="translate(0 328)" font-size="368" font-family="TimesNewRomanPS-BoldMT, Times New Roman" font-weight="700"><tspan x="0" y="0">1</tspan></text>
      </g>
      <g id="Group_15" data-name="Group 15" transform="translate(2641.935 491.329) rotate(-16.075)">
        <text id="K" transform="translate(0 330)" font-size="370" font-family="TimesNewRomanPS-BoldMT, Times New Roman" font-weight="700"><tspan x="0" y="0">K</tspan></text>
      </g>
      <g id="Group_16" data-name="Group 16" transform="matrix(0.946, -0.325, 0.325, 0.946, 2904.105, 415.896)">
        <text id="E-3" data-name="E" transform="translate(0 330)" font-size="370" font-family="TimesNewRomanPS-BoldMT, Times New Roman" font-weight="700"><tspan x="0" y="0">E</tspan></text>
      </g>
      <g id="Group_17" data-name="Group 17" transform="matrix(0.926, -0.376, 0.376, 0.926, 3122.787, 341.471)">
        <text id="D" transform="translate(0 327)" font-size="367" font-family="TimesNewRomanPS-BoldMT, Times New Roman" font-weight="700"><tspan x="0" y="0">D</tspan></text>
      </g>
      <g id="Group_18" data-name="Group 18" transform="translate(3356.154 245.37) rotate(-24.983)">
        <text id="I-2" data-name="I" transform="translate(0 330)" font-size="370" font-family="TimesNewRomanPS-BoldMT, Times New Roman" font-weight="700"><tspan x="0" y="0">I</tspan></text>
      </g>
      <g id="Group_19" data-name="Group 19" transform="translate(3471.239 194.477) rotate(-28.195)">
        <text id="R-2" data-name="R" transform="translate(0 330)" font-size="370" font-family="TimesNewRomanPS-BoldMT, Times New Roman" font-weight="700"><tspan x="0" y="0">R</tspan></text>
      </g>
      <g id="Group_20" data-name="Group 20" transform="translate(3690.452 75.799) rotate(-31.642)">
        <text id="I-3" data-name="I" transform="translate(0 330)" font-size="370" font-family="TimesNewRomanPS-BoldMT, Times New Roman" font-weight="700"><tspan x="0" y="0">I</tspan></text>
      </g>
    </g>
  </g>
</svg>
