<?xml version="1.0" encoding="UTF-8" standalone="no"?>
<!DOCTYPE svg PUBLIC "-//W3C//DTD SVG 1.1//EN" "http://www.w3.org/Graphics/SVG/1.1/DTD/svg11.dtd">
<svg width="100%" height="100%" viewBox="0 0 1690 1696" version="1.1" xmlns="http://www.w3.org/2000/svg" xmlns:xlink="http://www.w3.org/1999/xlink" xml:space="preserve" xmlns:serif="http://www.serif.com/" style="fill-rule:evenodd;clip-rule:evenodd;">
    <g id="Group_618" transform="matrix(1,0,0,1,-451.354,-492.477)">
        <g transform="matrix(1,0,0,1,458.707,500.027)">
            <g id="Layer_x0020_1">
                <g id="_2642358329024">
                    <g id="Path_2120" transform="matrix(1,0,0,1,-517,-580)">
                        <path d="M1354.62,580C1473.43,696.861 1679.09,704.043 1820.1,806.541C1957.86,907.081 2051.21,1139.5 2192.23,1188.46C2117.8,1337.96 2174.6,1535.13 2120.42,1701.61C2067.53,1863.52 1875.6,2023.47 1872.33,2172.97C1707.16,2148.16 1536.76,2263.06 1362.45,2263.06C1192.05,2263.06 979.876,2129.88 836.901,2172.97C809.481,2008.45 647.573,1881.8 593.386,1715.97C541.157,1554.06 602.526,1311.2 517.002,1188.46C665.202,1111.42 735.056,918.18 876.726,815.681C1014.48,715.794 1264.52,698.82 1354.62,580Z" style="fill:rgb(254,254,254);stroke:black;stroke-width:10px;"/>
                    </g>
                    <g id="Path_2121" transform="matrix(1,0,0,1,-546.854,-609.854)">
                        <path d="M1384.47,666C1495.45,775.027 1687.39,781.556 1819.27,877.526C1947.88,970.884 2034.71,1188.29 2165.94,1233.99C2096.74,1373.04 2149.61,1557.15 2099.35,1712.53C2050.38,1863.99 1870.19,2013.5 1867.58,2152.55C1713.51,2129.7 1554.86,2236.77 1391.65,2236.77C1232.35,2236.77 1035.19,2112.73 901.349,2152.55C875.888,1999.13 724.425,1880.97 674.155,1726.24C625.191,1574.78 682.642,1348.24 602.994,1233.99C740.747,1162.17 806.685,981.985 938.562,886.013C1067.18,792.654 1300.25,776.986 1384.47,666Z" style="fill:rgb(254,254,254);stroke:black;stroke-width:10px;"/>
                    </g>
                </g>
            </g>
        </g>
        <g transform="matrix(1,0,0,1,697,673)">
            <g id="Group_617">
                <g id="Group_616">
                    <g id="Path_2073" transform="matrix(1,0,0,1,514.652,408.256)">
                        <path d="M133.568,38.105L42.332,38.105L6.11,2.5L172.255,2.5L133.568,38.105Z" style="fill:rgb(255,250,0);fill-rule:nonzero;"/>
                        <path d="M12.219,5L43.355,35.605L132.593,35.605L165.847,5L12.219,5M0,0L178.663,0L134.544,40.605L41.309,40.605L0,0Z" style="fill:rgb(16,15,9);fill-rule:nonzero;"/>
                    </g>
                    <g id="Group_601" transform="matrix(1,0,0,1,208.083,0)">
                        <g id="Group_598" transform="matrix(1,0,0,1,306.57,343.288)">
                            <g id="Rectangle_180" transform="matrix(1,0,0,1,22.333,103.543)">
                                <rect x="0" y="0" width="133.997" height="361.387" style="fill:rgb(255,250,0);"/>
                                <rect x="2.5" y="2.5" width="128.997" height="356.387" style="fill:none;stroke:black;stroke-width:5px;"/>
                            </g>
                            <g id="Rectangle_181" transform="matrix(1,0,0,1,66.999,144.149)">
                                <rect x="0" y="0" width="44.666" height="280.176" style="fill:rgb(22,133,70);"/>
                                <rect x="2.5" y="2.5" width="39.666" height="275.176" style="fill:none;stroke:black;stroke-width:5px;stroke-linejoin:round;"/>
                            </g>
                            <g id="Rectangle_182">
                                <rect x="0" y="0" width="178.663" height="66.999" style="fill:rgb(255,250,0);"/>
                                <rect x="2.5" y="2.5" width="173.663" height="61.999" style="fill:none;stroke:black;stroke-width:5px;"/>
                            </g>
                        </g>
                        <g id="Group_600">
                            <g id="Group_597" transform="matrix(1,0,0,1,0,284.673)">
                                <g id="Group_594" transform="matrix(1,0,0,1,512.228,0)">
                                    <g id="Rectangle_176" transform="matrix(1,0,0,1,0,361.123)">
                                        <rect x="0" y="0" width="176.633" height="227.389" style="fill:rgb(234,60,0);"/>
                                        <rect x="2.5" y="2.5" width="171.633" height="222.389" style="fill:none;stroke:black;stroke-width:5px;"/>
                                    </g>
                                    <g id="Path_2067" transform="matrix(1,0,0,1,-1935.98,-631.507)">
                                        <path d="M1937,992.63L2137.22,992.63L2137.22,883C2137.22,883 2114.87,883.968 2095.04,895.049C2083.21,901.667 2076.59,919.324 2057.06,923.604C2038.24,927.73 2017.58,926.636 1997.4,926.893C1965.24,927.303 1937,926.893 1937,926.893L1937,992.63Z" style="fill:rgb(234,60,0);fill-rule:nonzero;stroke:black;stroke-width:5px;"/>
                                    </g>
                                    <g id="Path_2068" transform="matrix(1,0,0,1,-1936.5,-621.716)">
                                        <path d="M1937.49,891.7L2074.71,890.541L2074.71,905.519C2074.71,905.519 2068.61,912.339 2051.31,915.669C2042.12,917.44 2027.96,916.703 2014.28,916.969C1978.93,917.653 1937.48,916.969 1937.48,916.969L1937.49,891.7Z" style="fill:rgb(234,60,0);fill-rule:nonzero;stroke:black;stroke-width:5px;"/>
                                    </g>
                                    <g id="Rectangle_177" transform="matrix(1,0,0,1,0,245.398)">
                                        <rect x="0" y="0" width="119.785" height="24.363" style="fill:rgb(234,60,0);"/>
                                        <rect x="2.5" y="2.5" width="114.785" height="19.363" style="fill:none;stroke:black;stroke-width:5px;"/>
                                    </g>
                                    <g id="Rectangle_178" transform="matrix(1,0,0,1,0,210.884)">
                                        <rect x="0" y="0" width="109.634" height="36.545" style="fill:rgb(234,60,0);"/>
                                        <rect x="2.5" y="2.5" width="104.634" height="31.545" style="fill:none;stroke:black;stroke-width:5px;"/>
                                    </g>
                                    <g id="Rectangle_179" transform="matrix(1,0,0,1,0,182.46)">
                                        <rect x="0" y="0" width="119.785" height="30.454" style="fill:rgb(234,60,0);"/>
                                        <rect x="2.5" y="2.5" width="114.785" height="25.454" style="fill:none;stroke:black;stroke-width:5px;"/>
                                    </g>
                                    <g id="Path_2069" transform="matrix(1,0,0,1,-1936.98,-696.988)">
                                        <path d="M1938,846.566L1938,880.617L2056.66,880.617L2056.66,888.753L2087.7,904.724L2087.7,864.948C2087.7,864.948 2099.3,870.221 2104.57,859.524C2107.16,854.261 2104.13,846.07 2104.57,837.524C2104.96,829.976 2108.79,822.156 2108.79,822.156C2108.79,822.156 2091.24,816.056 2077.75,822.156C2064.27,828.256 2054.85,846.564 2054.85,846.564L1938,846.566Z" style="fill:rgb(234,60,0);fill-rule:nonzero;stroke:black;stroke-width:5px;"/>
                                    </g>
                                    <g id="Path_2070" transform="matrix(1,0,0,1,-1936.98,-695.183)">
                                        <path d="M1938,845.094L1938,821.2L2055.52,821.2L2055.52,844.578L1938,845.094Z" style="fill:rgb(234,60,0);fill-rule:nonzero;stroke:black;stroke-width:5px;"/>
                                    </g>
                                    <g id="Path_2071" transform="matrix(1,0,0,1,-1936.98,-707.347)">
                                        <path d="M1938,809.391L1938,833.284L2026.13,833.284L2026.13,809.927L1938,809.391Z" style="fill:rgb(234,60,0);fill-rule:nonzero;stroke:black;stroke-width:5px;"/>
                                    </g>
                                    <g id="Path_2072" transform="matrix(1,0,0,1,-1937.48,-759.13)">
                                        <path d="M1938.5,759.13L1938.5,860.658L2006.24,860.658L2012.27,825.193L1983.52,847.446C1983.52,847.446 2001.66,827.105 1996.04,805.027C1994.01,797.057 1973.09,794.364 1973.09,794.364L1961.04,759.131L1938.5,759.13Z" style="fill:rgb(234,60,0);fill-rule:nonzero;stroke:black;stroke-width:5px;"/>
                                    </g>
                                </g>
                                <g id="Group_595" transform="matrix(1,0,0,1,77.752,0)">
                                    <g id="Rectangle_176-2" transform="matrix(1,0,0,1,24.597,361.123)">
                                        <rect x="0" y="0" width="176.633" height="227.389" style="fill:rgb(234,60,0);"/>
                                        <rect x="2.5" y="2.5" width="171.633" height="222.389" style="fill:none;stroke:black;stroke-width:5px;"/>
                                    </g>
                                    <g id="Path_2067-2" transform="matrix(1,0,0,1,-1937,-631.507)">
                                        <path d="M2137.21,992.63L1937,992.63L1937,883C1937,883 1959.35,883.968 1979.17,895.049C1991.01,901.667 1997.63,919.324 2017.15,923.604C2035.97,927.73 2056.63,926.636 2076.82,926.893C2108.97,927.303 2137.22,926.893 2137.22,926.893L2137.21,992.63Z" style="fill:rgb(234,60,0);fill-rule:nonzero;stroke:black;stroke-width:5px;"/>
                                    </g>
                                    <g id="Path_2068-2" transform="matrix(1,0,0,1,-1874.47,-621.716)">
                                        <path d="M2074.71,891.7L1937.49,890.541L1937.49,905.519C1937.49,905.519 1943.59,912.339 1960.89,915.669C1970.08,917.44 1984.24,916.703 1997.92,916.969C2033.27,917.653 2074.72,916.969 2074.72,916.969L2074.71,891.7Z" style="fill:rgb(234,60,0);fill-rule:nonzero;stroke:black;stroke-width:5px;"/>
                                    </g>
                                    <g id="Rectangle_177-2" transform="matrix(1,0,0,1,81.444,245.398)">
                                        <rect x="0" y="0" width="119.785" height="24.363" style="fill:rgb(234,60,0);"/>
                                        <rect x="2.5" y="2.5" width="114.785" height="19.363" style="fill:none;stroke:black;stroke-width:5px;"/>
                                    </g>
                                    <g id="Rectangle_178-2" transform="matrix(1,0,0,1,91.595,210.884)">
                                        <rect x="0" y="0" width="109.634" height="36.545" style="fill:rgb(234,60,0);"/>
                                        <rect x="2.5" y="2.5" width="104.634" height="31.545" style="fill:none;stroke:black;stroke-width:5px;"/>
                                    </g>
                                    <g id="Rectangle_179-2" transform="matrix(1,0,0,1,81.444,182.46)">
                                        <rect x="0" y="0" width="119.785" height="30.454" style="fill:rgb(234,60,0);"/>
                                        <rect x="2.5" y="2.5" width="114.785" height="25.454" style="fill:none;stroke:black;stroke-width:5px;"/>
                                    </g>
                                    <g id="Path_2069-2" transform="matrix(1,0,0,1,-1908.57,-696.988)">
                                        <path d="M2108.79,846.566L2108.79,880.617L1990.13,880.617L1990.13,888.753L1959.09,904.724L1959.09,864.948C1959.09,864.948 1947.49,870.221 1942.22,859.524C1939.63,854.261 1942.66,846.07 1942.22,837.524C1941.83,829.976 1938,822.156 1938,822.156C1938,822.156 1955.55,816.056 1969.04,822.156C1982.52,828.256 1991.94,846.564 1991.94,846.564L2108.79,846.566Z" style="fill:rgb(234,60,0);fill-rule:nonzero;stroke:black;stroke-width:5px;"/>
                                    </g>
                                    <g id="Path_2070-2" transform="matrix(1,0,0,1,-1855.3,-695.183)">
                                        <path d="M2055.52,845.094L2055.52,821.2L1938,821.2L1938,844.578L2055.52,845.094Z" style="fill:rgb(234,60,0);fill-rule:nonzero;stroke:black;stroke-width:5px;"/>
                                    </g>
                                    <g id="Path_2071-2" transform="matrix(1,0,0,1,-1825.92,-707.347)">
                                        <path d="M2026.13,809.391L2026.13,833.284L1938,833.284L1938,809.927L2026.13,809.391Z" style="fill:rgb(234,60,0);fill-rule:nonzero;stroke:black;stroke-width:5px;"/>
                                    </g>
                                    <g id="Path_2072-2" transform="matrix(1,0,0,1,-1812.05,-759.13)">
                                        <path d="M2012.27,759.13L2012.27,860.658L1944.53,860.658L1938.5,825.193L1967.24,847.446C1967.24,847.446 1949.1,827.105 1954.73,805.027C1956.75,797.057 1977.67,794.364 1977.67,794.364L1989.73,759.131L2012.27,759.13Z" style="fill:rgb(234,60,0);fill-rule:nonzero;stroke:black;stroke-width:5px;"/>
                                    </g>
                                </g>
                                <g id="Group_591" transform="matrix(1,0,0,1,0,582.842)">
                                    <g id="Path_2062" transform="matrix(1,0,0,1,-1685.7,-988.542)">
                                        <path d="M2490.04,1155.87L1685.7,1155.87L1685.7,1100.21L2490.03,1100.21L2490.04,1155.87Z" style="fill:rgb(234,60,0);fill-rule:nonzero;stroke:black;stroke-width:5px;"/>
                                    </g>
                                    <g id="Path_2063" transform="matrix(1,0,0,1,-1651.64,-1045.39)">
                                        <path d="M2417.91,1155.87L1685.7,1155.87L1685.7,1100.21L2417.91,1100.21L2417.91,1155.87Z" style="fill:rgb(234,60,0);fill-rule:nonzero;stroke:black;stroke-width:5px;"/>
                                    </g>
                                    <g id="Path_2064" transform="matrix(1,0,0,1,-1625.31,-1100.21)">
                                        <rect x="1685.7" y="1100.21" width="672.78" height="55.661" style="fill:rgb(234,60,0);fill-rule:nonzero;stroke:black;stroke-width:5px;"/>
                                    </g>
                                </g>
                                <g id="buku" transform="matrix(1,0,0,1,169.106,495.693)">
                                    <g id="Group_592">
                                        <g id="Path_2065" transform="matrix(1,0,0,1,-1769,-1003.28)">
                                            <path d="M1997.92,1170.37C1997.92,1170.37 1976.39,1149.08 1919.95,1156.37C1888.29,1160.45 1852.07,1176.05 1820.65,1186.16C1803.78,1191.51 1786.51,1195.5 1769.01,1198.08C1768.14,1198.08 1815.76,1027.96 1815.76,1027.96C1815.76,1027.96 1826.33,1032.07 1871.94,1027.96C1893.79,1025.99 1917.55,1008.28 1949.11,1004.17C1980.68,1000.06 1998.2,1011.52 1998.2,1011.52L1997.92,1170.37Z" style="fill:white;fill-rule:nonzero;stroke:black;stroke-width:3px;"/>
                                        </g>
                                        <g id="Path_2066" transform="matrix(1,0,0,1,-1746.17,-998.637)">
                                            <path d="M1791.15,1031.26C1791.15,1031.26 1794.39,1035.37 1840.23,1031.26C1864.2,1029.11 1896.68,1012.84 1930.24,1008.73C1963.8,1004.61 1975.35,1015.39 1975.35,1015.39" style="fill:white;fill-rule:nonzero;stroke:black;stroke-width:3px;"/>
                                        </g>
                                    </g>
                                    <g id="Group_593" transform="matrix(1,0,0,1,229.42,0)">
                                        <g id="Path_2065-2" transform="matrix(1,0,0,1,-1769,-1003.28)">
                                            <path d="M1769.28,1170.37C1769.28,1170.37 1790.8,1149.09 1847.24,1156.37C1878.9,1160.45 1915.13,1176.05 1946.55,1186.16C1963.41,1191.52 1980.68,1195.5 1998.19,1198.08C1999.06,1198.08 1951.44,1027.96 1951.44,1027.96C1951.44,1027.96 1940.86,1032.07 1895.25,1027.96C1873.41,1025.99 1849.64,1008.28 1818.08,1004.17C1786.52,1000.06 1769,1011.52 1769,1011.52L1769.28,1170.37Z" style="fill:white;fill-rule:nonzero;stroke:black;stroke-width:3px;"/>
                                        </g>
                                        <g id="Path_2066-2" transform="matrix(1,0,0,1,-1791.12,-998.637)">
                                            <path d="M1975.35,1031.26C1975.35,1031.26 1972.1,1035.37 1926.27,1031.26C1902.3,1029.11 1869.82,1012.84 1836.25,1008.73C1802.69,1004.61 1791.15,1015.39 1791.15,1015.39" style="fill:white;fill-rule:nonzero;stroke:black;stroke-width:3px;"/>
                                        </g>
                                    </g>
                                </g>
                            </g>
                            <g id="Group_596" transform="matrix(1,0,0,1,324.89,0)">
                                <g id="Exclusion_1" transform="matrix(1,0,0,1,72.082,222.264)">
                                    <path d="M23.771,121.023L1.051,121.023C0.988,120.965 -0.449,119.56 0.145,114.556C0.7,109.882 3.217,101.028 12.02,85.4C15.936,78.446 22.1,73.274 29.234,67.284C36.934,60.823 45.657,53.499 53.152,42.309C59.103,33.343 63.622,23.505 66.546,13.148C67.806,8.849 68.698,4.45 69.214,0C69.221,0.02 69.226,0.04 69.227,0.061C70.363,8.423 70.998,16.845 71.127,25.282C71.291,33.219 70.928,41.157 70.04,49.046C69.173,57.308 67.317,65.436 64.513,73.256C61.744,80.481 57.989,87.288 53.354,93.484C49.335,98.888 44.825,103.91 39.882,108.484C34.918,113.16 29.524,117.358 23.771,121.021L23.771,121.023ZM54.447,61.4C54.302,61.526 40.963,73.111 31.623,83.866C26.01,90.312 21.053,97.301 16.823,104.728C16.997,104.641 35.21,95.411 44.46,84.758C48.384,80.175 51.289,74.809 52.98,69.017C53.74,66.538 54.232,63.984 54.447,61.4Z" style="fill:rgb(234,60,0);fill-rule:nonzero;stroke:black;stroke-width:3px;"/>
                                </g>
                                <g id="Exclusion_2" transform="matrix(1,0,0,1,68.737,141.565)">
                                    <path d="M5.571,188.037C5.442,187.853 2.407,183.427 0.871,173.348C-0.06,166.717 -0.257,160.004 0.283,153.33C1.104,143.21 2.874,133.189 5.571,123.4C8.287,113.215 14.786,103.592 22.311,92.449C29.707,81.5 38.089,69.085 44.354,53.67C49.408,41.355 52.895,28.454 54.735,15.27C55.48,10.215 55.807,5.108 55.714,0L55.73,0.039C58.619,9.697 60.71,19.576 61.982,29.577C63.332,39.601 63.889,49.716 63.647,59.827C63.399,71.502 61.788,83.109 58.847,94.41C55.515,106.338 50.953,117.887 45.234,128.871C39.928,139.209 34.009,149.22 27.508,158.852C20.751,168.985 13.427,178.728 5.572,188.035L5.571,188.037ZM44.213,92.118C44.181,92.145 41.463,94.505 33.781,106.027C26.075,117.586 13.281,138.501 13.152,138.711C20.654,135.567 27.037,130.234 31.465,123.411C39.143,111.891 44.163,92.317 44.213,92.118Z" style="fill:rgb(234,60,0);fill-rule:nonzero;stroke:black;stroke-width:3px;"/>
                                </g>
                                <g id="Exclusion_3" transform="matrix(1,0,0,1,13.081,0)">
                                    <path d="M55.655,297.258C52.87,295.996 50.191,294.509 47.647,292.813C41.03,288.474 34.988,283.315 29.666,277.459C21.808,268.799 15.429,258.904 10.787,248.171C4.776,234.435 1.175,218.871 0.087,201.924C-0.913,186.368 7.708,167.353 17.693,145.335C26.924,124.98 37.386,101.914 41.793,77.46C46.493,51.384 44.805,31.711 42.559,19.8C40.111,6.843 36.528,0.067 36.493,0C36.509,0.006 36.524,0.014 36.538,0.024C39.835,2.077 43.014,4.314 46.06,6.724C53.828,12.813 60.996,19.63 67.467,27.082C76.481,37.406 83.99,48.952 89.773,61.377C96.824,76.654 100.982,93.107 102.035,109.9C103.723,136.088 94.47,161.473 84.674,188.348C81.339,197.498 77.891,206.958 74.89,216.488C62.49,255.888 55.722,296.846 55.655,297.255L55.655,297.258ZM62.131,102.814C62.131,102.947 61.541,116.625 55.589,140.473C52.663,152.197 49.012,163.082 45.789,172.686C42.304,183.076 39.295,192.047 37.972,199.608C34.708,218.268 34.578,230.244 35.043,237.008C35.549,244.355 36.843,247.283 36.853,247.308C36.853,247.297 36.871,247.223 36.904,247.09C38.104,242.243 42.386,225.153 47.177,208.719C48.498,204.185 49.877,199.697 51.209,195.358C55.124,182.612 58.822,170.572 61.049,157.84C64.313,139.18 64.433,125.212 63.958,116.78C63.793,112.078 63.181,107.402 62.131,102.815L62.131,102.814Z" style="fill:rgb(234,60,0);fill-rule:nonzero;stroke:black;stroke-width:3px;"/>
                                </g>
                                <g id="Exclusion_4" transform="matrix(1,0,0,1,0,223.443)">
                                    <path d="M75.526,119.844C72.092,118.834 68.72,117.625 65.426,116.223C57.623,112.978 50.2,108.884 43.293,104.014C26.991,92.377 18.826,86.241 11.375,74.04C6.955,66.559 3.867,58.368 2.246,49.832C0.688,41.913 -0.065,33.856 0,25.785C-0.008,17.136 0.777,8.505 2.345,0C3.13,4.51 4.324,8.94 5.911,13.234C9.441,23.163 14.772,32.356 21.637,40.351C30,49.894 39.735,55.116 48.328,59.724C56.409,64.057 63.388,67.8 67.2,74.04C71.073,80.21 74.106,86.869 76.219,93.84C77.615,98.49 78.291,103.326 78.224,108.181C78.176,111.141 77.697,114.079 76.8,116.9C76.483,117.924 76.057,118.911 75.529,119.843L75.526,119.844ZM7.121,44.155C7.164,44.228 11.464,51.725 17.521,60.88C23.121,69.338 31.41,80.993 39.129,88.488C52.567,101.536 64.3,102.2 66.517,102.2C66.757,102.2 66.887,102.192 66.893,102.192C66.899,102.192 66.866,102.17 66.823,102.131C65.5,100.936 60.569,96.48 52.882,89.2C49.732,86.215 46.227,82.852 42.748,79.475C27.978,65.131 7.364,44.4 7.121,44.155Z" style="fill:rgb(234,60,0);fill-rule:nonzero;stroke:black;stroke-width:3px;"/>
                                </g>
                            </g>
                        </g>
                    </g>
                    <g id="Group_599" transform="matrix(1,0,0,1,437.502,1043.73)">
                        <g id="Ellipse_328">
                            <circle cx="48.726" cy="48.726" r="48.726" style="fill:none;"/>
                            <circle cx="48.726" cy="48.726" r="43.726" style="fill:none;stroke:rgb(255,238,0);stroke-width:10px;"/>
                        </g>
                        <g id="Ellipse_329" transform="matrix(1,0,0,1,56.847,42.635)">
                            <circle cx="48.726" cy="48.726" r="48.726" style="fill:none;"/>
                            <circle cx="48.726" cy="48.726" r="43.726" style="fill:none;stroke:rgb(255,238,0);stroke-width:10px;"/>
                        </g>
                        <g id="Ellipse_330" transform="matrix(1,0,0,1,119.785,12.182)">
                            <circle cx="48.726" cy="48.726" r="48.726" style="fill:none;"/>
                            <circle cx="48.726" cy="48.726" r="43.726" style="fill:none;stroke:rgb(255,238,0);stroke-width:10px;"/>
                        </g>
                        <g id="Ellipse_331" transform="matrix(1,0,0,1,188.814,42.635)">
                            <circle cx="48.726" cy="48.726" r="48.726" style="fill:none;"/>
                            <g transform="matrix(1,0,0,1,-6,0)">
                                <circle cx="48.726" cy="48.726" r="43.726" style="fill:none;stroke:rgb(255,238,0);stroke-width:10px;"/>
                            </g>
                        </g>
                        <g id="Ellipse_332" transform="matrix(1,0,0,1,247.692,0)">
                            <circle cx="48.726" cy="48.726" r="48.726" style="fill:none;"/>
                            <g transform="matrix(1,0,0,1,-9,0)">
                                <circle cx="48.726" cy="48.726" r="43.726" style="fill:none;stroke:rgb(255,238,0);stroke-width:10px;"/>
                            </g>
                        </g>
                    </g>
                    <g id="Group_602" transform="matrix(1,0,0,1,0,81.717)">
                        <g id="Path_2086" transform="matrix(0.956305,0.292372,-0.292372,0.956305,150.253,578.382)">
                            <path d="M0.094,94.214C0.094,94.214 15.117,92.3 27.085,68.751C39.053,45.202 47.965,0 47.965,0C47.965,0 22.247,24.827 10.279,48.38C3.096,62.562 -0.407,78.325 0.094,94.214Z" style="fill:rgb(253,254,116);fill-rule:nonzero;stroke:black;stroke-width:5px;"/>
                        </g>
                        <g id="Path_2083" transform="matrix(1,0,0,1,-1532.98,-597.229)">
                            <path d="M1682.33,1357.81C1682.33,1357.81 1570.33,1091.63 1682.33,952.003C1724.89,898.942 1813.23,815.279 1883.05,719.281" style="fill:none;fill-rule:nonzero;stroke:black;stroke-width:5px;stroke-linecap:round;"/>
                        </g>
                        <g id="Path_2082" transform="matrix(1,0,0,1,-1583.51,-290.117)">
                            <path d="M1822.38,1182.66C1822.38,1182.66 1804.86,1159.53 1798.42,1140.47C1791.98,1121.41 1799.54,1115.49 1796.61,1106.42C1788.01,1079.74 1788.57,1083.54 1787.96,1075.94C1784.73,1036.13 1809.47,1023.44 1809.47,1023.44C1809.47,1023.44 1785.89,1023.3 1766.78,1030.78C1747.67,1038.27 1733.03,1053.38 1733.03,1053.38C1733.03,1053.38 1716.61,1030.93 1690.54,1023.44C1664.47,1015.95 1642.16,1013.01 1614.15,1028.86C1586.14,1044.7 1579.49,1081.69 1585.6,1109.6C1591.7,1137.5 1641.11,1144.23 1641.11,1144.23C1641.11,1144.23 1615.64,1100.14 1626.34,1084.13C1637.03,1068.12 1667.35,1073.14 1683.88,1080.17C1718.04,1094.7 1739.72,1163.55 1761.05,1171.06C1810.54,1188.49 1822.38,1182.66 1822.38,1182.66Z" style="fill:rgb(0,144,74);fill-rule:nonzero;stroke:black;stroke-width:5px;"/>
                        </g>
                        <g id="Path_2084" transform="matrix(1,0,0,1,-1512.72,-339.453)">
                            <path d="M1652.31,1063.7C1652.31,1063.7 1667.33,1061.79 1679.3,1038.24C1691.27,1014.68 1700.18,969.486 1700.18,969.486C1700.18,969.486 1674.46,994.313 1662.5,1017.87C1655.31,1032.05 1651.81,1047.81 1652.31,1063.7Z" style="fill:rgb(253,254,116);fill-rule:nonzero;stroke:black;stroke-width:5px;"/>
                        </g>
                        <g id="Path_2085" transform="matrix(0.913545,-0.406737,0.406737,0.913545,18.841,660.14)">
                            <path d="M83.622,94.214C83.622,94.214 57.378,92.3 36.473,68.751C15.568,45.202 0,0 0,0C0,0 44.924,24.827 65.829,48.38C86.734,71.933 83.622,94.214 83.622,94.214Z" style="fill:rgb(253,254,116);fill-rule:nonzero;stroke:black;stroke-width:5px;"/>
                        </g>
                        <g id="Path_2087" transform="matrix(0.921,0.391,-0.391,0.921,155.164,503.947)">
                            <path d="M0.13,115.907C0.13,115.907 21.016,113.557 37.653,84.581C54.29,55.605 66.681,0 66.681,0C66.681,0 30.928,30.543 14.291,59.52C-2.346,88.497 0.13,115.907 0.13,115.907Z" style="fill:rgb(253,254,116);fill-rule:nonzero;stroke:black;stroke-width:5px;"/>
                        </g>
                        <g id="Path_2088" transform="matrix(-0.921,0.391,-0.391,-0.921,113.001,651.245)">
                            <path d="M0.13,0C0.13,0 21.016,2.35 37.654,31.326C54.292,60.302 66.682,115.907 66.682,115.907C66.682,115.907 30.928,85.364 14.291,56.387C-2.346,27.41 0.13,0 0.13,0Z" style="fill:rgb(253,254,116);fill-rule:nonzero;stroke:black;stroke-width:5px;"/>
                        </g>
                        <g id="Path_2089" transform="matrix(-0.946,0.326,-0.326,-0.946,103.968,593.959)">
                            <path d="M0.13,0C0.13,0 21.016,2.35 37.654,31.326C54.292,60.302 66.682,115.907 66.682,115.907C66.682,115.907 30.928,85.364 14.291,56.387C-2.346,27.41 0.13,0 0.13,0Z" style="fill:rgb(253,254,116);fill-rule:nonzero;stroke:black;stroke-width:5px;"/>
                        </g>
                        <g id="Path_2090" transform="matrix(-0.996,0.087,-0.087,-0.996,95.901,539.877)">
                            <path d="M0.13,0C0.13,0 21.016,2.35 37.654,31.326C54.292,60.302 66.682,115.907 66.682,115.907C66.682,115.907 30.928,85.364 14.291,56.387C-2.346,27.41 0.13,0 0.13,0Z" style="fill:rgb(253,254,116);fill-rule:nonzero;stroke:black;stroke-width:5px;"/>
                        </g>
                        <g id="Path_2091" transform="matrix(-0.996,0.087,-0.087,-0.996,99.961,472.878)">
                            <path d="M0.13,0C0.13,0 21.016,2.35 37.654,31.326C54.292,60.302 66.682,115.907 66.682,115.907C66.682,115.907 30.928,85.364 14.291,56.387C-2.346,27.41 0.13,0 0.13,0Z" style="fill:rgb(253,254,116);fill-rule:nonzero;stroke:black;stroke-width:5px;"/>
                        </g>
                        <g id="Path_2092" transform="matrix(-0.981627,-0.190809,0.190809,-0.981627,134.123,371.667)">
                            <path d="M0.13,0C0.13,0 21.016,2.35 37.654,31.326C54.292,60.302 66.682,115.907 66.682,115.907C66.682,115.907 30.928,85.364 14.291,56.387C-2.346,27.41 0.13,0 0.13,0Z" style="fill:rgb(253,254,116);fill-rule:nonzero;stroke:black;stroke-width:5px;"/>
                        </g>
                        <g id="Path_2093" transform="matrix(-0.995,-0.105,0.105,-0.995,111.13,418.264)">
                            <path d="M0.13,0C0.13,0 21.016,2.35 37.654,31.326C54.292,60.302 66.682,115.907 66.682,115.907C66.682,115.907 30.928,85.364 14.291,56.387C-2.346,27.41 0.13,0 0.13,0Z" style="fill:rgb(253,254,116);fill-rule:nonzero;stroke:black;stroke-width:5px;"/>
                        </g>
                        <g id="Path_2094" transform="matrix(-0.961262,-0.275637,0.275637,-0.961262,163.043,334.74)">
                            <path d="M0.13,0C0.13,0 21.016,2.35 37.654,31.326C54.292,60.302 66.682,115.907 66.682,115.907C66.682,115.907 30.928,85.364 14.291,56.387C-2.346,27.41 0.13,0 0.13,0Z" style="fill:rgb(253,254,116);fill-rule:nonzero;stroke:black;stroke-width:5px;"/>
                        </g>
                        <g id="Path_2095" transform="matrix(-0.94,-0.342,0.342,-0.94,199.082,291.038)">
                            <path d="M0.13,0C0.13,0 21.016,2.35 37.654,31.326C54.292,60.302 66.682,115.907 66.682,115.907C66.682,115.907 30.928,85.364 14.291,56.387C-2.346,27.41 0.13,0 0.13,0Z" style="fill:rgb(253,254,116);fill-rule:nonzero;stroke:black;stroke-width:5px;"/>
                        </g>
                        <g id="Path_2096" transform="matrix(-0.913545,-0.406737,0.406737,-0.913545,231.004,259.196)">
                            <path d="M0.13,0C0.13,0 21.016,2.35 37.654,31.326C54.292,60.302 66.682,115.907 66.682,115.907C66.682,115.907 30.928,85.364 14.291,56.387C-2.346,27.41 0.13,0 0.13,0Z" style="fill:rgb(253,254,116);fill-rule:nonzero;stroke:black;stroke-width:5px;"/>
                        </g>
                        <g id="Path_2097" transform="matrix(-0.913545,-0.406737,0.406737,-0.913545,269.579,216.56)">
                            <path d="M0.13,0C0.13,0 21.016,2.35 37.654,31.326C54.292,60.302 66.682,115.907 66.682,115.907C66.682,115.907 30.928,85.364 14.291,56.387C-2.346,27.41 0.13,0 0.13,0Z" style="fill:rgb(253,254,116);fill-rule:nonzero;stroke:black;stroke-width:5px;"/>
                        </g>
                        <g id="Path_2098" transform="matrix(-0.913545,-0.406737,0.406737,-0.913545,302.063,175.955)">
                            <path d="M0.13,0C0.13,0 21.016,2.35 37.654,31.326C54.292,60.302 66.682,115.907 66.682,115.907C66.682,115.907 30.928,85.364 14.291,56.387C-2.346,27.41 0.13,0 0.13,0Z" style="fill:rgb(253,254,116);fill-rule:nonzero;stroke:black;stroke-width:5px;"/>
                        </g>
                        <g id="Path_2099" transform="matrix(-0.574,-0.819,0.819,-0.574,354.129,121.277)">
                            <path d="M0.13,0C0.13,0 21.016,2.35 37.654,31.326C54.292,60.302 66.682,115.907 66.682,115.907C66.682,115.907 30.928,85.364 14.291,56.387C-2.346,27.41 0.13,0 0.13,0Z" style="fill:rgb(253,254,116);fill-rule:nonzero;stroke:black;stroke-width:5px;"/>
                        </g>
                        <g id="Path_2100" transform="matrix(-0.848048,-0.529919,0.529919,-0.848048,335.376,133.631)">
                            <path d="M0.13,0C0.13,0 21.016,2.35 37.654,31.326C54.292,60.302 66.682,115.907 66.682,115.907C66.682,115.907 30.928,85.364 14.291,56.387C-2.346,27.41 0.13,0 0.13,0Z" style="fill:rgb(253,254,116);fill-rule:nonzero;stroke:black;stroke-width:5px;"/>
                        </g>
                        <g id="Path_2101" transform="matrix(0.190809,-0.981627,0.981627,0.190809,341.56,143.303)">
                            <path d="M0.13,0C0.13,0 21.016,2.35 37.654,31.326C54.292,60.302 66.682,115.907 66.682,115.907C66.682,115.907 30.928,85.364 14.29,56.387C-2.348,27.41 0.13,0 0.13,0Z" style="fill:rgb(253,254,116);fill-rule:nonzero;stroke:black;stroke-width:5px;"/>
                        </g>
                        <g id="Path_2102" transform="matrix(0.809017,0.587785,-0.587785,0.809017,170.301,453.081)">
                            <path d="M0.13,115.907C0.13,115.907 21.016,113.557 37.653,84.581C54.29,55.605 66.681,0 66.681,0C66.681,0 30.928,30.543 14.291,59.52C-2.346,88.497 0.13,115.907 0.13,115.907Z" style="fill:rgb(253,254,116);fill-rule:nonzero;stroke:black;stroke-width:5px;"/>
                        </g>
                        <g id="Path_2103" transform="matrix(0.743145,0.669131,-0.669131,0.743145,181.272,405.461)">
                            <path d="M0.13,115.907C0.13,115.907 21.016,113.557 37.653,84.581C54.29,55.605 66.681,0 66.681,0C66.681,0 30.928,30.543 14.291,59.52C-2.346,88.497 0.13,115.907 0.13,115.907Z" style="fill:rgb(253,254,116);fill-rule:nonzero;stroke:black;stroke-width:5px;"/>
                        </g>
                        <g id="Path_2104" transform="matrix(0.643,0.766,-0.766,0.643,202.416,355.259)">
                            <path d="M0.13,115.907C0.13,115.907 21.016,113.557 37.653,84.581C54.29,55.605 66.681,0 66.681,0C66.681,0 30.928,30.543 14.291,59.52C-2.346,88.497 0.13,115.907 0.13,115.907Z" style="fill:rgb(253,254,116);fill-rule:nonzero;stroke:black;stroke-width:5px;"/>
                        </g>
                        <g id="Path_2105" transform="matrix(0.643,0.766,-0.766,0.643,222.718,308.563)">
                            <path d="M0.13,115.907C0.13,115.907 21.016,113.557 37.653,84.581C54.29,55.605 66.681,0 66.681,0C66.681,0 30.928,30.543 14.291,59.52C-2.346,88.497 0.13,115.907 0.13,115.907Z" style="fill:rgb(253,254,116);fill-rule:nonzero;stroke:black;stroke-width:5px;"/>
                        </g>
                        <g id="Path_2106" transform="matrix(0.574,0.819,-0.819,0.574,274.8,260.046)">
                            <path d="M0.13,115.907C0.13,115.907 21.016,113.557 37.653,84.581C54.29,55.605 66.681,0 66.681,0C66.681,0 30.928,30.543 14.291,59.52C-2.346,88.497 0.13,115.907 0.13,115.907Z" style="fill:rgb(253,254,116);fill-rule:nonzero;stroke:black;stroke-width:5px;"/>
                        </g>
                        <g id="Path_2107" transform="matrix(0.574,0.819,-0.819,0.574,311.345,217.411)">
                            <path d="M0.13,115.907C0.13,115.907 21.016,113.557 37.653,84.581C54.29,55.605 66.681,0 66.681,0C66.681,0 30.928,30.543 14.291,59.52C-2.346,88.497 0.13,115.907 0.13,115.907Z" style="fill:rgb(253,254,116);fill-rule:nonzero;stroke:black;stroke-width:5px;"/>
                        </g>
                        <g id="Path_2108" transform="matrix(0.574,0.819,-0.819,0.574,366.162,156.503)">
                            <path d="M0.13,115.907C0.13,115.907 21.016,113.557 37.653,84.581C54.29,55.605 66.681,0 66.681,0C66.681,0 30.928,30.543 14.291,59.52C-2.346,88.497 0.13,115.907 0.13,115.907Z" style="fill:rgb(253,254,116);fill-rule:nonzero;stroke:black;stroke-width:5px;"/>
                        </g>
                        <g id="Path_2122" transform="matrix(0.574,0.819,-0.819,0.574,400.162,115.503)">
                            <path d="M0.13,115.907C0.13,115.907 21.016,113.557 37.653,84.581C54.29,55.605 66.681,0 66.681,0C66.681,0 30.928,30.543 14.291,59.52C-2.346,88.497 0.13,115.907 0.13,115.907Z" style="fill:rgb(253,254,116);fill-rule:nonzero;stroke:black;stroke-width:5px;"/>
                        </g>
                    </g>
                    <g id="Path_2109" transform="matrix(1,0,0,1,-1048.58,-206.483)">
                        <path d="M2102.73,1044.24L2121.41,1019.23" style="fill:none;fill-rule:nonzero;stroke:black;stroke-width:5px;"/>
                    </g>
                    <g id="Group_612" transform="matrix(1,0,0,1,790.649,92.387)">
                        <g id="Group_611" transform="matrix(0.358368,-0.93358,0.93358,0.358368,0,105.109)">
                            <g id="Path_2111" transform="matrix(1,0,0,1,21.209,0)">
                                <path d="M6.081,73.136C6.081,73.136 -4.64,43.913 2.389,25.724C9.418,7.535 31.118,-2.075 34.2,0.378C40.661,5.522 35.336,40.633 35.336,40.633C35.336,40.633 46.058,24.158 60.046,14.691C74.034,5.224 91.289,2.763 91.289,2.763C91.289,2.763 93.277,17.747 78.508,40.633C76.208,44.189 48.969,71.346 48.969,71.346C48.969,71.346 66.508,61.283 76.8,64.488C87.092,67.693 93.237,80.744 90.153,84.169C84.9,90 74.532,94.158 60.046,96.693C45.56,99.228 32.211,94.308 32.211,94.308L6.081,73.136Z" style="fill:white;fill-rule:nonzero;stroke:black;stroke-width:5px;"/>
                            </g>
                            <g id="Path_2110" transform="matrix(1,0,0,1,0,25.806)">
                                <path d="M82.683,74.547C82.683,74.547 58.967,96.314 40.364,94.824C21.761,93.334 14.985,75.311 8.268,68.583C-10.335,49.946 8.268,0 8.268,0C8.268,0 13.068,17.269 17.916,29.436C20.497,36.164 23.764,42.609 27.664,48.668L57.917,28.2L49.009,64.725C49.009,64.725 51.178,67.916 59.596,70.371C68.014,72.826 82.683,74.547 82.683,74.547Z" style="fill:rgb(0,144,74);fill-rule:nonzero;stroke:black;stroke-width:5px;"/>
                            </g>
                        </g>
                        <g id="Group_610" transform="matrix(0.358368,-0.93358,0.93358,0.358368,41.803,170.499)">
                            <g id="Path_2111-2" transform="matrix(1,0,0,1,24.138,0)">
                                <path d="M6.921,83.236C6.921,83.236 -5.279,49.978 2.721,29.276C10.721,8.574 35.416,-2.362 38.924,0.43C46.278,6.284 40.217,46.245 40.217,46.245C40.217,46.245 52.417,27.495 68.34,16.72C84.263,5.945 103.9,3.145 103.9,3.145C103.9,3.145 106.163,20.198 89.354,46.245C86.739,50.292 55.733,81.2 55.733,81.2C55.733,81.2 75.693,69.746 87.412,73.394C99.131,77.042 106.112,91.894 102.604,95.794C96.628,102.431 84.825,107.163 68.339,110.048C51.853,112.933 36.66,107.333 36.66,107.333L6.921,83.236Z" style="fill:white;fill-rule:nonzero;stroke:black;stroke-width:5px;"/>
                            </g>
                            <g id="Path_2110-2" transform="matrix(1,0,0,1,0,29.37)">
                                <path d="M94.1,84.842C94.1,84.842 67.108,109.616 45.936,107.919C24.764,106.222 17.054,85.712 9.41,78.055C-11.763,56.844 9.41,0 9.41,0C9.41,0 14.872,19.654 20.391,33.5C25.91,47.346 31.485,55.39 31.485,55.39L65.915,32.1L55.777,73.663C55.777,73.663 58.246,77.294 67.826,80.089C77.406,82.884 94.1,84.842 94.1,84.842Z" style="fill:rgb(0,144,74);fill-rule:nonzero;stroke:black;stroke-width:5px;"/>
                            </g>
                        </g>
                        <g id="Group_609" transform="matrix(0.190809,-0.981627,0.981627,0.190809,82.988,250.215)">
                            <g id="Path_2111-3" transform="matrix(1,0,0,1,10.611,0)">
                                <path d="M8.772,105.506C8.772,105.506 -6.695,63.349 3.446,37.106C13.587,10.863 44.891,-2.994 49.337,0.545C58.659,7.965 50.976,58.617 50.976,58.617C50.976,58.617 66.444,34.851 86.624,21.193C106.804,7.535 131.695,3.986 131.695,3.986C131.695,3.986 134.563,25.602 113.258,58.617C109.947,63.747 70.644,102.924 70.644,102.924C70.644,102.924 95.944,88.406 110.799,93.03C125.654,97.654 134.505,116.481 130.057,121.421C122.482,129.834 107.521,135.831 86.625,139.488C65.729,143.145 46.47,136.047 46.47,136.047L8.772,105.506Z" style="fill:white;fill-rule:nonzero;stroke:black;stroke-width:5px;"/>
                            </g>
                            <g id="Path_2110-3" transform="matrix(1,0,0,1,0,23.002)">
                                <path d="M119.28,107.542C119.28,107.542 85.067,138.942 58.229,136.793C31.391,134.644 21.616,108.644 11.929,98.938C-14.91,72.053 11.928,0 11.928,0C11.928,0 18.852,24.912 25.846,42.465C32.84,60.018 39.91,70.209 39.91,70.209L83.55,40.683L70.7,93.372C70.7,93.372 73.829,97.972 85.973,101.517C98.117,105.062 119.28,107.542 119.28,107.542Z" style="fill:rgb(0,144,74);fill-rule:nonzero;stroke:black;stroke-width:5px;"/>
                            </g>
                        </g>
                        <g id="Path_2082-2" transform="matrix(1,0,0,1,-1397.83,-300.787)">
                            <path d="M1583.51,1182.66C1583.51,1182.66 1601.03,1159.53 1607.47,1140.47C1613.91,1121.41 1606.35,1115.49 1609.28,1106.42C1617.89,1079.74 1617.32,1083.54 1617.93,1075.94C1621.16,1036.13 1596.42,1023.44 1596.42,1023.44C1596.42,1023.44 1620,1023.3 1639.11,1030.78C1658.23,1038.27 1672.86,1053.38 1672.86,1053.38C1672.86,1053.38 1689.28,1030.93 1715.35,1023.44C1741.43,1015.95 1763.73,1013.01 1791.74,1028.86C1819.75,1044.7 1826.4,1081.69 1820.3,1109.6C1814.2,1137.5 1764.79,1144.23 1764.79,1144.23C1764.79,1144.23 1790.25,1100.14 1779.56,1084.13C1768.86,1068.12 1738.54,1073.14 1722.01,1080.17C1687.86,1094.7 1666.17,1163.55 1644.84,1171.06C1595.35,1188.49 1583.51,1182.66 1583.51,1182.66Z" style="fill:rgb(0,144,74);fill-rule:nonzero;stroke:black;stroke-width:5px;"/>
                        </g>
                        <g id="Group_608" transform="matrix(0.358368,-0.93358,0.93358,0.358368,135.889,304.475)">
                            <g id="Path_2111-4" transform="matrix(1,0,0,1,30.122,0)">
                                <path d="M8.636,103.869C8.636,103.869 -6.591,62.369 3.393,36.534C13.377,10.699 44.193,-2.947 48.572,0.534C57.749,7.839 50.185,57.705 50.185,57.705C50.185,57.705 65.413,34.31 85.28,20.864C105.147,7.418 129.651,3.924 129.651,3.924C129.651,3.924 132.475,25.204 111.5,57.707C108.24,62.757 69.548,101.327 69.548,101.327C69.548,101.327 94.456,87.034 109.08,91.587C123.704,96.14 132.418,114.674 128.039,119.538C120.581,127.821 105.853,133.725 85.28,137.325C64.707,140.925 45.749,133.937 45.749,133.937L8.636,103.869Z" style="fill:white;fill-rule:nonzero;stroke:black;stroke-width:5px;"/>
                            </g>
                            <g id="Path_2110-4" transform="matrix(1,0,0,1,0,36.65)">
                                <path d="M117.429,105.873C117.429,105.873 83.747,136.788 57.329,134.673C30.911,132.558 21.281,106.958 11.743,97.4C-14.679,70.932 11.743,0 11.743,0C11.743,0 18.559,24.526 25.443,41.806C32.327,59.086 39.29,69.12 39.29,69.12L82.254,40.052L69.6,91.923C69.6,91.923 72.681,96.455 84.637,99.942C96.593,103.429 117.429,105.873 117.429,105.873Z" style="fill:rgb(0,144,74);fill-rule:nonzero;stroke:black;stroke-width:5px;"/>
                            </g>
                        </g>
                        <g id="Group_607" transform="matrix(0.5,-0.866025,0.866025,0.5,191.767,365.969)">
                            <g id="Path_2111-5" transform="matrix(1,0,0,1,31.998,0)">
                                <path d="M9.174,107.707C9.174,107.707 -7,64.671 3.6,37.884C14.2,11.097 46.947,-3.056 51.6,0.557C61.348,8.132 53.313,59.841 53.313,59.841C53.313,59.841 69.49,35.578 90.593,21.636C111.696,7.694 137.725,4.07 137.725,4.07C137.725,4.07 140.725,26.137 118.443,59.841C114.98,65.078 73.878,105.072 73.878,105.072C73.878,105.072 100.338,90.251 115.872,94.972C131.406,99.693 140.663,118.912 136.011,123.956C128.089,132.545 112.443,138.667 90.59,142.4C68.737,146.133 48.6,138.887 48.6,138.887L9.174,107.707Z" style="fill:white;fill-rule:nonzero;stroke:black;stroke-width:5px;"/>
                            </g>
                            <g id="Path_2110-5" transform="matrix(1,0,0,1,0,38.005)">
                                <path d="M124.742,109.786C124.742,109.786 88.962,141.844 60.9,139.648C32.838,137.452 22.606,110.911 12.474,101C-15.593,73.553 12.474,0 12.474,0C12.474,0 19.715,25.432 27.03,43.351C34.345,61.27 41.737,71.674 41.737,71.674L87.377,41.532L73.937,95.321C73.937,95.321 77.21,100.021 89.911,103.636C102.612,107.251 124.742,109.786 124.742,109.786Z" style="fill:rgb(0,144,74);fill-rule:nonzero;stroke:black;stroke-width:5px;"/>
                            </g>
                        </g>
                        <g id="Group_606" transform="matrix(0.695,-0.719,0.719,0.695,250.573,420.299)">
                            <g id="Path_2111-6" transform="matrix(1,0,0,1,30.38,0)">
                                <path d="M8.71,99.849C8.71,99.849 -6.648,59.953 3.423,35.12C13.494,10.287 44.574,-2.833 48.989,0.516C58.245,7.539 50.616,55.475 50.616,55.475C50.616,55.475 65.975,32.983 86.016,20.057C106.057,7.131 130.765,3.773 130.765,3.773C130.765,3.773 133.612,24.23 112.457,55.473C109.17,60.33 70.144,97.407 70.144,97.407C70.144,97.407 95.267,83.667 110.016,88.044C124.765,92.421 133.554,110.238 129.137,114.913C121.615,122.875 106.76,128.551 86.011,132.013C65.262,135.475 46.14,128.756 46.14,128.756L8.71,99.849Z" style="fill:white;fill-rule:nonzero;stroke:black;stroke-width:5px;"/>
                            </g>
                            <g id="Path_2110-6" transform="matrix(1,0,0,1,0,35.232)">
                                <path d="M118.438,101.776C118.438,101.776 84.467,131.495 57.818,129.459C31.169,127.423 21.465,102.819 11.845,93.634C-14.8,68.19 11.844,0 11.844,0C11.844,0 18.719,23.577 25.664,40.188C32.609,56.799 39.627,66.445 39.627,66.445L82.96,38.5L70.2,88.366C70.2,88.366 73.308,92.722 85.367,96.074C97.426,99.426 118.438,101.776 118.438,101.776Z" style="fill:rgb(0,144,74);fill-rule:nonzero;stroke:black;stroke-width:5px;"/>
                            </g>
                        </g>
                        <g id="Group_605" transform="matrix(0.819,-0.574,0.574,0.819,256.605,485.588)">
                            <g id="Path_2111-7" transform="matrix(1,0,0,1,30.38,0)">
                                <path d="M8.71,99.849C8.71,99.849 -6.648,59.953 3.423,35.12C13.494,10.287 44.574,-2.833 48.989,0.516C58.245,7.539 50.616,55.475 50.616,55.475C50.616,55.475 65.975,32.983 86.016,20.057C106.057,7.131 130.765,3.773 130.765,3.773C130.765,3.773 133.612,24.23 112.457,55.473C109.17,60.33 70.144,97.407 70.144,97.407C70.144,97.407 95.267,83.667 110.016,88.044C124.765,92.421 133.554,110.238 129.137,114.913C121.615,122.875 106.76,128.551 86.011,132.013C65.262,135.475 46.14,128.756 46.14,128.756L8.71,99.849Z" style="fill:white;fill-rule:nonzero;stroke:black;stroke-width:5px;"/>
                            </g>
                            <g id="Path_2110-7" transform="matrix(1,0,0,1,0,35.232)">
                                <path d="M118.438,101.776C118.438,101.776 84.467,131.495 57.818,129.459C31.169,127.423 21.465,102.819 11.845,93.634C-14.8,68.19 11.844,0 11.844,0C11.844,0 18.719,23.577 25.664,40.188C32.609,56.799 39.627,66.445 39.627,66.445L82.96,38.5L70.2,88.366C70.2,88.366 73.308,92.722 85.367,96.074C97.426,99.426 118.438,101.776 118.438,101.776Z" style="fill:rgb(0,144,74);fill-rule:nonzero;stroke:black;stroke-width:5px;"/>
                            </g>
                        </g>
                        <g id="Group_604" transform="matrix(0.978,-0.208,0.208,0.978,263.713,536.889)">
                            <g id="Path_2111-8" transform="matrix(1,0,0,1,27.704,0)">
                                <path d="M7.943,91C7.943,91 -6.057,54.642 3.121,32.01C12.299,9.378 40.647,-2.582 44.673,0.47C53.113,6.87 46.157,50.555 46.157,50.555C46.157,50.555 60.163,30.055 78.434,18.278C96.705,6.501 119.244,3.438 119.244,3.438C119.244,3.438 121.844,22.081 102.544,50.555C99.544,54.979 63.959,88.768 63.959,88.768C63.959,88.768 86.869,76.247 100.318,80.235C113.767,84.223 121.783,100.46 117.755,104.721C110.896,111.977 97.349,117.15 78.429,120.303C59.509,123.456 42.07,117.335 42.07,117.335L7.943,91Z" style="fill:white;fill-rule:nonzero;stroke:black;stroke-width:5px;"/>
                            </g>
                            <g id="Path_2110-8" transform="matrix(1,0,0,1,0,32.108)">
                                <path d="M108,92.751C108,92.751 77.022,119.834 52.721,117.98C28.42,116.126 19.573,93.7 10.8,85.331C-13.5,62.143 10.8,0 10.8,0C10.8,0 17.07,21.486 23.4,36.624C29.73,51.762 36.137,60.553 36.137,60.553L75.652,35.088L64.016,80.53C64.016,80.53 66.85,84.5 77.846,87.555C88.842,90.61 108,92.751 108,92.751Z" style="fill:rgb(0,144,74);fill-rule:nonzero;stroke:black;stroke-width:5px;"/>
                            </g>
                        </g>
                        <g id="Group_603" transform="matrix(1,0,0,1,250.516,602.976)">
                            <g id="Path_2111-9" transform="matrix(1,0,0,1,-2084.91,-960.414)">
                                <path d="M2113.87,1034.32C2113.87,1034.32 2102.49,1004.79 2109.95,986.41C2117.41,968.029 2140.43,958.316 2143.7,960.796C2150.56,965.996 2144.91,1001.48 2144.91,1001.48C2144.91,1001.48 2156.28,984.828 2171.12,975.26C2185.96,965.692 2204.27,963.206 2204.27,963.206C2204.27,963.206 2206.38,978.348 2190.71,1001.48C2188.27,1005.07 2159.37,1032.51 2159.37,1032.51C2159.37,1032.51 2177.98,1022.34 2188.9,1025.58C2199.82,1028.82 2206.33,1042.01 2203.06,1045.47C2197.49,1051.37 2186.49,1055.57 2171.12,1058.13C2155.75,1060.69 2141.59,1055.72 2141.59,1055.72L2113.87,1034.32Z" style="fill:white;fill-rule:nonzero;stroke:black;stroke-width:5px;"/>
                            </g>
                            <g id="Path_2110-9" transform="matrix(1,0,0,1,-2096.33,-948.18)">
                                <path d="M2184.05,1049.59C2184.05,1049.59 2158.89,1071.59 2139.16,1070.09C2119.42,1068.58 2112.23,1050.37 2105.1,1043.57C2085.37,1024.73 2105.1,974.259 2105.1,974.259C2105.1,974.259 2110.2,991.711 2115.34,1004.01C2118.09,1010.83 2121.56,1017.35 2125.68,1023.44L2157.78,1002.76L2148.33,1039.67C2148.33,1039.67 2150.63,1042.89 2159.57,1045.37C2168.5,1047.86 2184.05,1049.59 2184.05,1049.59Z" style="fill:rgb(0,144,74);fill-rule:nonzero;stroke:black;stroke-width:5px;"/>
                            </g>
                        </g>
                    </g>
                    <g id="Path_2117" transform="matrix(1,0,0,1,-1526.23,-80.439)">
                        <path d="M1639.11,1142.88L1849.11,1294.09L2294.4,1304.99L2478.24,1220.56L2602.16,1141.58L2510.92,1235.54L2602.16,1220.56L2451,1317.24L1775.37,1310.64L1639.11,1221.6L1738.71,1246.74L1639.11,1142.88Z" style="fill:white;fill-rule:nonzero;stroke:black;stroke-width:5px;"/>
                    </g>
                    <g id="Group_615" transform="matrix(1,0,0,1,112.134,1041.8)">
                        <g id="Group_614">
                            <g id="Path_2116" transform="matrix(1,0,0,1,-976.989,-1085.29)">
                                <path d="M1812.2,1177.44L1701.69,1194.24L1701.69,1212.58L1812.2,1177.44Z" style="fill:rgb(234,60,0);fill-rule:nonzero;stroke:black;stroke-width:5px;"/>
                            </g>
                            <g id="Path_2115" transform="matrix(1,0,0,1,-1573.88,-1085.29)">
                                <path d="M1701.69,1177.44L1812.2,1194.24L1812.2,1212.58L1701.69,1177.44Z" style="fill:rgb(234,60,0);fill-rule:nonzero;stroke:black;stroke-width:5px;"/>
                            </g>
                            <g id="Path_2112" transform="matrix(1,0,0,1,-1638.74,-1132.05)">
                                <path d="M1638.74,1132.05C1638.74,1132.05 1698.65,1171.71 1758.61,1198.79C1818.57,1225.86 1878.58,1240.35 1878.58,1240.35L1754.39,1221.33C1754.39,1221.33 1931.54,1297.62 2112.43,1298.53C2293.31,1299.45 2477.93,1225 2477.93,1225L2362.9,1241.7C2362.9,1241.7 2440.75,1216.71 2499.8,1190.03C2558.84,1163.34 2599.08,1134.96 2599.08,1134.96L2485.87,1236.26L2603.05,1215.07L2485.87,1280.21C2485.87,1280.21 2317.01,1363.44 2134.14,1363.1C1951.27,1362.75 1754.39,1278.83 1754.39,1278.83L1638.74,1216L1754.39,1235.8L1638.74,1132.05Z" style="fill:rgb(234,60,0);fill-rule:nonzero;stroke:black;stroke-width:5px;"/>
                            </g>
                            <g id="Group_613" transform="matrix(1,0,0,1,117.892,88.506)">
                                <g id="Path_2114" transform="matrix(1,0,0,1,-1697.02,-1108.13)">
                                    <path d="M1697.02,1177.4L1697.02,1248.57C1697.02,1248.57 1907.16,1317.2 2087.9,1317.07C2268.64,1316.95 2418.42,1248.57 2418.42,1248.57L2418.42,1177.6C2418.42,1177.6 2243.95,1244.41 2063.59,1244.36C1883.24,1244.3 1697.02,1177.4 1697.02,1177.4Z" style="fill:white;fill-rule:nonzero;stroke:black;stroke-width:5px;"/>
                                </g>
                                <g id="Path_2113" transform="matrix(1,0,0,1,-1697.02,-1177.39)">
                                    <path d="M1697.02,1177.4L1697.02,1255.93C1697.02,1255.93 1907.16,1331.65 2087.9,1331.51C2268.64,1331.36 2418.42,1255.93 2418.42,1255.93L2418.42,1177.63C2418.42,1177.63 2243.95,1251.34 2063.59,1251.28C1883.24,1251.23 1697.02,1177.4 1697.02,1177.4Z" style="fill:rgb(234,60,0);fill-rule:nonzero;stroke:black;stroke-width:5px;"/>
                                </g>
                            </g>
                        </g>
                    </g>
                </g>
            </g>
        </g>
        <g transform="matrix(0.977358,0.166126,-0.166126,0.977358,827.939,493.294)">
            <g transform="matrix(0.990303,0.138922,-0.138922,0.990303,195.522,-35.1425)">
                <text x="349.5px" y="1383.03px" style="font-family:'TimesNewRomanPS-BoldMT', 'Times New Roman', serif;font-weight:700;font-size:65px;">S</text>
            </g>
            <g transform="matrix(0.995203,0.0978364,-0.0978364,0.995203,137.675,-31.0277)">
                <text x="385.216px" y="1388.31px" style="font-family:'TimesNewRomanPS-BoldMT', 'Times New Roman', serif;font-weight:700;font-size:65px;">M</text>
            </g>
            <g transform="matrix(0.998573,0.0534111,-0.0534111,0.998573,75.1002,-21.8518)">
                <text x="446.383px" y="1394.15px" style="font-family:'TimesNewRomanPS-BoldMT', 'Times New Roman', serif;font-weight:700;font-size:65px;">A</text>
            </g>
            <g transform="matrix(0.999982,0.00599972,-0.00599972,0.999982,8.39078,-3.00968)">
                <text x="505.828px" y="1397.01px" style="font-family:'TimesNewRomanPS-BoldMT', 'Times New Roman', serif;font-weight:700;font-size:65px;">N</text>
            </g>
            <g transform="matrix(0.999568,-0.0293807,0.0293807,0.999568,-40.8133,16.8442)">
                <text x="552.78px" y="1397.25px" style="font-family:'TimesNewRomanPS-BoldMT', 'Times New Roman', serif;font-weight:700;font-size:65px;">E</text>
            </g>
            <g transform="matrix(0.997632,-0.0687722,0.0687722,0.997632,-94.5979,44.3029)">
                <text x="596.136px" y="1396.05px" style="font-family:'TimesNewRomanPS-BoldMT', 'Times New Roman', serif;font-weight:700;font-size:65px;">G</text>
            </g>
            <g transform="matrix(0.994344,-0.106204,0.106204,0.994344,-144.233,76.5449)">
                <text x="646.582px" y="1392.51px" style="font-family:'TimesNewRomanPS-BoldMT', 'Times New Roman', serif;font-weight:700;font-size:65px;">E</text>
            </g>
            <g transform="matrix(0.989235,-0.146336,0.146336,0.989235,-195.679,115.881)">
                <text x="689.782px" y="1387.94px" style="font-family:'TimesNewRomanPS-BoldMT', 'Times New Roman', serif;font-weight:700;font-size:65px;">R</text>
            </g>
            <g transform="matrix(0.98414,-0.177395,0.177395,0.98414,-233.293,152.492)">
                <text x="736.16px" y="1380.92px" style="font-family:'TimesNewRomanPS-BoldMT', 'Times New Roman', serif;font-weight:700;font-size:65px;">I</text>
            </g>
            <g transform="matrix(0.975774,-0.218779,0.218779,0.975774,-281.622,203.267)">
                <text x="777.032px" y="1373.28px" style="font-family:'TimesNewRomanPS-BoldMT', 'Times New Roman', serif;font-weight:700;font-size:65px;">1</text>
            </g>
            <g transform="matrix(0.9609,-0.276895,0.276895,0.9609,-345.016,281.591)">
                <text x="824.571px" y="1362.45px" style="font-family:'TimesNewRomanPS-BoldMT', 'Times New Roman', serif;font-weight:700;font-size:65px;">K</text>
            </g>
            <g transform="matrix(0.945876,-0.324528,0.324528,0.945876,-390.345,356.312)">
                <text x="873.054px" y="1348.42px" style="font-family:'TimesNewRomanPS-BoldMT', 'Times New Roman', serif;font-weight:700;font-size:65px;">E</text>
            </g>
            <g transform="matrix(0.926498,-0.3763,0.3763,0.926498,-434.909,442.087)">
                <text x="914.197px" y="1334.32px" style="font-family:'TimesNewRomanPS-BoldMT', 'Times New Roman', serif;font-weight:700;font-size:65px;">D</text>
            </g>
            <g transform="matrix(0.906433,-0.422349,0.422349,0.906433,-466.381,527.604)">
                <text x="957.579px" y="1316.4px" style="font-family:'TimesNewRomanPS-BoldMT', 'Times New Roman', serif;font-weight:700;font-size:65px;">I</text>
            </g>
            <g transform="matrix(0.881344,-0.472475,0.472475,0.881344,-500.738,618.263)">
                <text x="980.559px" y="1306.07px" style="font-family:'TimesNewRomanPS-BoldMT', 'Times New Roman', serif;font-weight:700;font-size:65px;">R</text>
            </g>
            <g transform="matrix(0.851344,-0.524608,0.524608,0.851344,-521.513,726.869)">
                <text x="1021.81px" y="1283.64px" style="font-family:'TimesNewRomanPS-BoldMT', 'Times New Roman', serif;font-weight:700;font-size:65px;">I</text>
            </g>
        </g>
    </g>
</svg>
