<svg xmlns="http://www.w3.org/2000/svg" width="1689.593" height="1695.612" viewBox="0 0 1689.593 1695.612">
  <g id="LOGO_DKC_UKURAN_NORMAL" data-name="LOGO DKC UKURAN NORMAL" transform="translate(-451.353 -492.475)">
    <g id="Group_1" data-name="Group 1" transform="translate(458.707 500.027)">
      <g id="Layer_x0020_1">
        <g id="_2642358329024">
          <g id="Path_2120" transform="translate(-517 -580)">
            <path id="Path_1" data-name="Path 1" d="M1354.62,580c118.81,116.861,324.47,124.043,465.48,226.541,137.76,100.54,231.11,332.959,372.13,381.919-74.43,149.5-17.63,346.67-71.81,513.15-52.89,161.91-244.82,321.86-248.09,471.36-165.17-24.81-335.57,90.09-509.88,90.09-170.4,0-382.574-133.18-525.549-90.09-27.42-164.52-189.328-291.17-243.515-457-52.229-161.91,9.14-404.77-76.384-527.51,148.2-77.04,218.054-270.28,359.724-372.779C1014.48,715.794,1264.52,698.82,1354.62,580Z" fill="#fefefe" stroke="#000" stroke-width="10" fill-rule="evenodd"/>
          </g>
          <g id="Path_2121" transform="translate(-546.854 -609.854)">
            <path id="Path_2" data-name="Path 2" d="M1384.47,666c110.98,109.027,302.92,115.556,434.8,211.526,128.61,93.358,215.44,310.764,346.67,356.464-69.2,139.05-16.33,323.16-66.59,478.54-48.97,151.46-229.16,300.97-231.77,440.02-154.07-22.85-312.72,84.22-475.93,84.22-159.3,0-356.46-124.04-490.3-84.22-25.461-153.42-176.924-271.58-227.194-426.31-48.964-151.46,8.487-378-71.161-492.25,137.753-71.82,203.691-252.005,335.568-347.977C1067.18,792.654,1300.25,776.986,1384.47,666Z" fill="#fefefe" stroke="#000" stroke-width="10" fill-rule="evenodd"/>
          </g>
        </g>
      </g>
    </g>
    <g id="Group_4" data-name="Group 4" transform="translate(697 673)">
      <g id="Group_617">
        <g id="Group_616">
          <g id="Path_2073" transform="translate(514.652 408.256)">
            <path id="Path_3" data-name="Path 3" d="M133.568,38.1H42.332L6.11,2.5H172.255Z" fill="#fffa00"/>
            <path id="Path_4" data-name="Path 4" d="M12.219,5,43.355,35.6h89.238L165.847,5H12.219M0,0H178.663L134.544,40.6H41.309Z" fill="#100f09"/>
          </g>
          <g id="Group_601" transform="translate(208.083)">
            <g id="Group_598" transform="translate(306.57 343.288)">
              <g id="Rectangle_180" transform="translate(22.333 103.543)">
                <rect id="Rectangle_1" data-name="Rectangle 1" width="133.997" height="361.387" fill="#fffa00"/>
                <rect id="Rectangle_2" data-name="Rectangle 2" width="128.997" height="356.387" transform="translate(2.5 2.5)" fill="none" stroke="#000" stroke-width="5"/>
              </g>
              <g id="Rectangle_181" transform="translate(66.999 144.149)">
                <rect id="Rectangle_3" data-name="Rectangle 3" width="44.666" height="280.176" fill="#168546"/>
                <rect id="Rectangle_4" data-name="Rectangle 4" width="39.666" height="275.176" transform="translate(2.5 2.5)" fill="none" stroke="#000" stroke-linejoin="round" stroke-width="5"/>
              </g>
              <g id="Rectangle_182">
                <rect id="Rectangle_5" data-name="Rectangle 5" width="178.663" height="66.999" fill="#fffa00"/>
                <rect id="Rectangle_6" data-name="Rectangle 6" width="173.663" height="61.999" transform="translate(2.5 2.5)" fill="none" stroke="#000" stroke-width="5"/>
              </g>
            </g>
            <g id="Group_600">
              <g id="Group_597" transform="translate(0 284.673)">
                <g id="Group_594" transform="translate(512.228)">
                  <g id="Rectangle_176" transform="translate(0 361.123)">
                    <rect id="Rectangle_7" data-name="Rectangle 7" width="176.633" height="227.389" fill="#ea3c00"/>
                    <rect id="Rectangle_8" data-name="Rectangle 8" width="171.633" height="222.389" transform="translate(2.5 2.5)" fill="none" stroke="#000" stroke-width="5"/>
                  </g>
                  <g id="Path_2067" transform="translate(-1935.98 -631.507)">
                    <path id="Path_5" data-name="Path 5" d="M1937,992.63h200.22V883s-22.35.968-42.18,12.049c-11.83,6.618-18.45,24.275-37.98,28.555-18.82,4.126-39.48,3.032-59.66,3.289-32.16.41-60.4,0-60.4,0Z" fill="#ea3c00" stroke="#000" stroke-width="5"/>
                  </g>
                  <g id="Path_2068" transform="translate(-1936.5 -621.716)">
                    <path id="Path_6" data-name="Path 6" d="M1937.49,891.7l137.22-1.159v14.978s-6.1,6.82-23.4,10.15c-9.19,1.771-23.35,1.034-37.03,1.3-35.35.684-76.8,0-76.8,0Z" fill="#ea3c00" stroke="#000" stroke-width="5"/>
                  </g>
                  <g id="Rectangle_177" transform="translate(0 245.398)">
                    <rect id="Rectangle_9" data-name="Rectangle 9" width="119.785" height="24.363" fill="#ea3c00"/>
                    <rect id="Rectangle_10" data-name="Rectangle 10" width="114.785" height="19.363" transform="translate(2.5 2.5)" fill="none" stroke="#000" stroke-width="5"/>
                  </g>
                  <g id="Rectangle_178" transform="translate(0 210.884)">
                    <rect id="Rectangle_11" data-name="Rectangle 11" width="109.634" height="36.545" fill="#ea3c00"/>
                    <rect id="Rectangle_12" data-name="Rectangle 12" width="104.634" height="31.545" transform="translate(2.5 2.5)" fill="none" stroke="#000" stroke-width="5"/>
                  </g>
                  <g id="Rectangle_179" transform="translate(0 182.46)">
                    <rect id="Rectangle_13" data-name="Rectangle 13" width="119.785" height="30.454" fill="#ea3c00"/>
                    <rect id="Rectangle_14" data-name="Rectangle 14" width="114.785" height="25.454" transform="translate(2.5 2.5)" fill="none" stroke="#000" stroke-width="5"/>
                  </g>
                  <g id="Path_2069" transform="translate(-1936.98 -696.988)">
                    <path id="Path_7" data-name="Path 7" d="M1938,846.566v34.051h118.66v8.136l31.04,15.971V864.948s11.6,5.273,16.87-5.424c2.59-5.263-.44-13.454,0-22,.39-7.548,4.22-15.368,4.22-15.368s-17.55-6.1-31.04,0-22.9,24.408-22.9,24.408Z" fill="#ea3c00" stroke="#000" stroke-width="5"/>
                  </g>
                  <g id="Path_2070" transform="translate(-1936.98 -695.183)">
                    <path id="Path_8" data-name="Path 8" d="M1938,845.094V821.2h117.52v23.378Z" fill="#ea3c00" stroke="#000" stroke-width="5"/>
                  </g>
                  <g id="Path_2071" transform="translate(-1936.98 -707.347)">
                    <path id="Path_9" data-name="Path 9" d="M1938,809.391v23.893h88.13V809.927Z" fill="#ea3c00" stroke="#000" stroke-width="5"/>
                  </g>
                  <g id="Path_2072" transform="translate(-1937.48 -759.13)">
                    <path id="Path_10" data-name="Path 10" d="M1938.5,759.13V860.658h67.74l6.03-35.465-28.75,22.253s18.14-20.341,12.52-42.419c-2.03-7.97-22.95-10.663-22.95-10.663l-12.05-35.233Z" fill="#ea3c00" stroke="#000" stroke-width="5"/>
                  </g>
                </g>
                <g id="Group_595" transform="translate(77.752)">
                  <g id="Rectangle_176-2" transform="translate(24.597 361.123)">
                    <rect id="Rectangle_15" data-name="Rectangle 15" width="176.633" height="227.389" fill="#ea3c00"/>
                    <rect id="Rectangle_16" data-name="Rectangle 16" width="171.633" height="222.389" transform="translate(2.5 2.5)" fill="none" stroke="#000" stroke-width="5"/>
                  </g>
                  <g id="Path_2067-2" transform="translate(-1937 -631.507)">
                    <path id="Path_11" data-name="Path 11" d="M2137.21,992.63H1937V883s22.35.968,42.17,12.049c11.84,6.618,18.46,24.275,37.98,28.555,18.82,4.126,39.48,3.032,59.67,3.289,32.15.41,60.4,0,60.4,0Z" fill="#ea3c00" stroke="#000" stroke-width="5"/>
                  </g>
                  <g id="Path_2068-2" transform="translate(-1874.47 -621.716)">
                    <path id="Path_12" data-name="Path 12" d="M2074.71,891.7l-137.22-1.159v14.978s6.1,6.82,23.4,10.15c9.19,1.771,23.35,1.034,37.03,1.3,35.35.684,76.8,0,76.8,0Z" fill="#ea3c00" stroke="#000" stroke-width="5"/>
                  </g>
                  <g id="Rectangle_177-2" transform="translate(81.444 245.398)">
                    <rect id="Rectangle_17" data-name="Rectangle 17" width="119.785" height="24.363" fill="#ea3c00"/>
                    <rect id="Rectangle_18" data-name="Rectangle 18" width="114.785" height="19.363" transform="translate(2.5 2.5)" fill="none" stroke="#000" stroke-width="5"/>
                  </g>
                  <g id="Rectangle_178-2" transform="translate(91.595 210.884)">
                    <rect id="Rectangle_19" data-name="Rectangle 19" width="109.634" height="36.545" fill="#ea3c00"/>
                    <rect id="Rectangle_20" data-name="Rectangle 20" width="104.634" height="31.545" transform="translate(2.5 2.5)" fill="none" stroke="#000" stroke-width="5"/>
                  </g>
                  <g id="Rectangle_179-2" transform="translate(81.444 182.46)">
                    <rect id="Rectangle_21" data-name="Rectangle 21" width="119.785" height="30.454" fill="#ea3c00"/>
                    <rect id="Rectangle_22" data-name="Rectangle 22" width="114.785" height="25.454" transform="translate(2.5 2.5)" fill="none" stroke="#000" stroke-width="5"/>
                  </g>
                  <g id="Path_2069-2" transform="translate(-1908.57 -696.988)">
                    <path id="Path_13" data-name="Path 13" d="M2108.79,846.566v34.051H1990.13v8.136l-31.04,15.971V864.948s-11.6,5.273-16.87-5.424c-2.59-5.263.44-13.454,0-22-.39-7.548-4.22-15.368-4.22-15.368s17.55-6.1,31.04,0,22.9,24.408,22.9,24.408Z" fill="#ea3c00" stroke="#000" stroke-width="5"/>
                  </g>
                  <g id="Path_2070-2" transform="translate(-1855.3 -695.183)">
                    <path id="Path_14" data-name="Path 14" d="M2055.52,845.094V821.2H1938v23.378Z" fill="#ea3c00" stroke="#000" stroke-width="5"/>
                  </g>
                  <g id="Path_2071-2" transform="translate(-1825.92 -707.347)">
                    <path id="Path_15" data-name="Path 15" d="M2026.13,809.391v23.893H1938V809.927Z" fill="#ea3c00" stroke="#000" stroke-width="5"/>
                  </g>
                  <g id="Path_2072-2" transform="translate(-1812.05 -759.13)">
                    <path id="Path_16" data-name="Path 16" d="M2012.27,759.13V860.658h-67.74l-6.03-35.465,28.74,22.253s-18.14-20.341-12.51-42.419c2.02-7.97,22.94-10.663,22.94-10.663l12.06-35.233Z" fill="#ea3c00" stroke="#000" stroke-width="5"/>
                  </g>
                </g>
                <g id="Group_591" transform="translate(0 582.842)">
                  <g id="Path_2062" transform="translate(-1685.7 -988.542)">
                    <path id="Path_17" data-name="Path 17" d="M2490.04,1155.87H1685.7v-55.66h804.33Z" fill="#ea3c00" stroke="#000" stroke-width="5"/>
                  </g>
                  <g id="Path_2063" transform="translate(-1651.64 -1045.39)">
                    <path id="Path_18" data-name="Path 18" d="M2417.91,1155.87H1685.7v-55.66h732.21Z" fill="#ea3c00" stroke="#000" stroke-width="5"/>
                  </g>
                  <g id="Path_2064" transform="translate(-1625.31 -1100.21)">
                    <rect id="Rectangle_23" data-name="Rectangle 23" width="672.78" height="55.661" transform="translate(1685.7 1100.21)" fill="#ea3c00" stroke="#000" stroke-width="5"/>
                  </g>
                </g>
                <g id="buku" transform="translate(169.106 495.693)">
                  <g id="Group_592">
                    <g id="Path_2065" transform="translate(-1769 -1003.28)">
                      <path id="Path_19" data-name="Path 19" d="M1997.92,1170.37s-21.53-21.29-77.97-14c-31.66,4.08-67.88,19.68-99.3,29.79a330.115,330.115,0,0,1-51.64,11.92c-.87,0,46.75-170.12,46.75-170.12s10.57,4.11,56.18,0c21.85-1.97,45.61-19.68,77.17-23.79s49.09,7.35,49.09,7.35Z" fill="#fff" stroke="#000" stroke-width="3"/>
                    </g>
                    <g id="Path_2066" transform="translate(-1746.17 -998.637)">
                      <path id="Path_20" data-name="Path 20" d="M1791.15,1031.26s3.24,4.11,49.08,0c23.97-2.15,56.45-18.42,90.01-22.53s45.11,6.66,45.11,6.66" fill="#fff" stroke="#000" stroke-width="3"/>
                    </g>
                  </g>
                  <g id="Group_593" transform="translate(229.42)">
                    <g id="Path_2065-2" transform="translate(-1769 -1003.28)">
                      <path id="Path_21" data-name="Path 21" d="M1769.28,1170.37s21.52-21.28,77.96-14c31.66,4.08,67.89,19.68,99.31,29.79a328.473,328.473,0,0,0,51.64,11.92c.87,0-46.75-170.12-46.75-170.12s-10.58,4.11-56.19,0c-21.84-1.97-45.61-19.68-77.17-23.79s-49.08,7.35-49.08,7.35Z" fill="#fff" stroke="#000" stroke-width="3"/>
                    </g>
                    <g id="Path_2066-2" transform="translate(-1791.12 -998.637)">
                      <path id="Path_22" data-name="Path 22" d="M1975.35,1031.26s-3.25,4.11-49.08,0c-23.97-2.15-56.45-18.42-90.02-22.53s-45.1,6.66-45.1,6.66" fill="#fff" stroke="#000" stroke-width="3"/>
                    </g>
                  </g>
                </g>
              </g>
              <g id="Group_596" transform="translate(324.89)">
                <g id="Exclusion_1" transform="translate(72.082 222.264)">
                  <path id="Path_23" data-name="Path 23" d="M23.771,121.023H1.051c-.063-.058-1.5-1.463-.906-6.467C.7,109.882,3.217,101.028,12.02,85.4c3.916-6.954,10.08-12.126,17.214-18.116,7.7-6.461,16.423-13.785,23.918-24.975A103.663,103.663,0,0,0,66.546,13.148,79.171,79.171,0,0,0,69.214,0a.214.214,0,0,1,.013.061,211.358,211.358,0,0,1,1.9,25.221A179.323,179.323,0,0,1,70.04,49.046a103.835,103.835,0,0,1-5.527,24.21A83.884,83.884,0,0,1,53.354,93.484a109.326,109.326,0,0,1-13.472,15,108.428,108.428,0,0,1-16.111,12.537ZM54.447,61.4c-.145.126-13.484,11.711-22.824,22.466a128.938,128.938,0,0,0-14.8,20.862c.174-.087,18.387-9.317,27.637-19.97a42.531,42.531,0,0,0,8.52-15.741A36.241,36.241,0,0,0,54.447,61.4Z" fill="#ea3c00" stroke="#000" stroke-width="3"/>
                </g>
                <g id="Exclusion_2" transform="translate(68.737 141.565)">
                  <path id="Path_24" data-name="Path 24" d="M5.571,188.037c-.129-.184-3.164-4.61-4.7-14.689A91.12,91.12,0,0,1,.283,153.33,162,162,0,0,1,5.571,123.4c2.716-10.185,9.215-19.808,16.74-30.951C29.707,81.5,38.089,69.085,44.354,53.67a159.043,159.043,0,0,0,10.381-38.4A93.1,93.1,0,0,0,55.714,0l.016.039a184.136,184.136,0,0,1,6.252,29.538,192.189,192.189,0,0,1,1.665,30.25,149.964,149.964,0,0,1-4.8,34.583,178.762,178.762,0,0,1-13.613,34.461,291.591,291.591,0,0,1-17.726,29.981A323.606,323.606,0,0,1,5.572,188.035ZM44.213,92.118c-.032.027-2.75,2.387-10.432,13.909-7.706,11.559-20.5,32.474-20.629,32.684a40.492,40.492,0,0,0,18.313-15.3C39.143,111.891,44.163,92.317,44.213,92.118Z" fill="#ea3c00" stroke="#000" stroke-width="3"/>
                </g>
                <g id="Exclusion_3" transform="translate(13.081)">
                  <path id="Path_25" data-name="Path 25" d="M55.655,297.258a56.418,56.418,0,0,1-8.008-4.445,93.8,93.8,0,0,1-17.981-15.354,106.5,106.5,0,0,1-18.879-29.288c-6.011-13.736-9.612-29.3-10.7-46.247-1-15.556,7.621-34.571,17.606-56.589,9.231-20.355,19.693-43.421,24.1-67.875,4.7-26.076,3.012-45.749.766-57.66C40.111,6.843,36.528.067,36.493,0a.2.2,0,0,1,.045.024,103.624,103.624,0,0,1,9.522,6.7A154.967,154.967,0,0,1,67.467,27.082,145.481,145.481,0,0,1,89.773,61.377,136.12,136.12,0,0,1,102.035,109.9c1.688,26.188-7.565,51.573-17.361,78.448-3.335,9.15-6.783,18.61-9.784,28.14-12.4,39.4-19.168,80.358-19.235,80.767Zm6.476-194.444c0,.133-.59,13.811-6.542,37.659-2.926,11.724-6.577,22.609-9.8,32.213-3.485,10.39-6.494,19.361-7.817,26.922-3.264,18.66-3.394,30.636-2.929,37.4.506,7.347,1.8,10.275,1.81,10.3,0-.011.018-.085.051-.218,1.2-4.847,5.482-21.937,10.273-38.371,1.321-4.534,2.7-9.022,4.032-13.361,3.915-12.746,7.613-24.786,9.84-37.518,3.264-18.66,3.384-32.628,2.909-41.06a74.256,74.256,0,0,0-1.827-13.965Z" fill="#ea3c00" stroke="#000" stroke-width="3"/>
                </g>
                <g id="Exclusion_4" transform="translate(0 223.443)">
                  <path id="Path_26" data-name="Path 26" d="M75.526,119.844a92.268,92.268,0,0,1-10.1-3.621,115.12,115.12,0,0,1-22.133-12.209C26.991,92.377,18.826,86.241,11.375,74.04A75.153,75.153,0,0,1,2.246,49.832,119.583,119.583,0,0,1,0,25.785,141.5,141.5,0,0,1,2.345,0,75.547,75.547,0,0,0,5.911,13.234,85.685,85.685,0,0,0,21.637,40.351C30,49.894,39.735,55.116,48.328,59.724,56.409,64.057,63.388,67.8,67.2,74.04a81.965,81.965,0,0,1,9.019,19.8,47.59,47.59,0,0,1,2,14.341A30.4,30.4,0,0,1,76.8,116.9a14.925,14.925,0,0,1-1.271,2.943ZM7.121,44.155c.043.073,4.343,7.57,10.4,16.725,5.6,8.458,13.889,20.113,21.608,27.608C52.567,101.536,64.3,102.2,66.517,102.2c.24,0,.37-.008.376-.008a.767.767,0,0,0-.07-.061C65.5,100.936,60.569,96.48,52.882,89.2c-3.15-2.985-6.655-6.348-10.134-9.725C27.978,65.131,7.364,44.4,7.121,44.155Z" fill="#ea3c00" stroke="#000" stroke-width="3"/>
                </g>
              </g>
            </g>
          </g>
          <g id="Group_599" transform="translate(437.502 1043.73)">
            <g id="Ellipse_328">
              <circle id="Ellipse_1" data-name="Ellipse 1" cx="48.726" cy="48.726" r="48.726" transform="translate(0 0)" fill="none"/>
              <circle id="Ellipse_2" data-name="Ellipse 2" cx="43.726" cy="43.726" r="43.726" transform="translate(5 5)" fill="none" stroke="#fe0" stroke-width="10"/>
            </g>
            <g id="Ellipse_329" transform="translate(56.847 42.635)">
              <circle id="Ellipse_3" data-name="Ellipse 3" cx="48.726" cy="48.726" r="48.726" transform="translate(0 0)" fill="none"/>
              <circle id="Ellipse_4" data-name="Ellipse 4" cx="43.726" cy="43.726" r="43.726" transform="translate(5 5)" fill="none" stroke="#fe0" stroke-width="10"/>
            </g>
            <g id="Ellipse_330" transform="translate(119.785 12.182)">
              <circle id="Ellipse_5" data-name="Ellipse 5" cx="48.726" cy="48.726" r="48.726" transform="translate(0 0)" fill="none"/>
              <circle id="Ellipse_6" data-name="Ellipse 6" cx="43.726" cy="43.726" r="43.726" transform="translate(5 5)" fill="none" stroke="#fe0" stroke-width="10"/>
            </g>
            <g id="Ellipse_331" transform="translate(188.814 42.635)">
              <circle id="Ellipse_7" data-name="Ellipse 7" cx="48.726" cy="48.726" r="48.726" transform="translate(0 0)" fill="none"/>
              <g id="Group_2" data-name="Group 2" transform="translate(-6)">
                <circle id="Ellipse_8" data-name="Ellipse 8" cx="43.726" cy="43.726" r="43.726" transform="translate(5 5)" fill="none" stroke="#fe0" stroke-width="10"/>
              </g>
            </g>
            <g id="Ellipse_332" transform="translate(247.692)">
              <circle id="Ellipse_9" data-name="Ellipse 9" cx="48.726" cy="48.726" r="48.726" transform="translate(0 0)" fill="none"/>
              <g id="Group_3" data-name="Group 3" transform="translate(-9)">
                <circle id="Ellipse_10" data-name="Ellipse 10" cx="43.726" cy="43.726" r="43.726" transform="translate(5 5)" fill="none" stroke="#fe0" stroke-width="10"/>
              </g>
            </g>
          </g>
          <g id="Group_602" transform="translate(0 81.717)">
            <g id="Path_2086" transform="matrix(0.956, 0.292, -0.292, 0.956, 150.253, 578.382)">
              <path id="Path_27" data-name="Path 27" d="M.094,94.214S15.117,92.3,27.085,68.751,47.965,0,47.965,0,22.247,24.827,10.279,48.38A94.831,94.831,0,0,0,.094,94.214Z" fill="#fdfe74" stroke="#000" stroke-width="5"/>
            </g>
            <g id="Path_2083" transform="translate(-1532.98 -597.229)">
              <path id="Path_28" data-name="Path 28" d="M1682.33,1357.81s-112-266.18,0-405.807c42.56-53.061,130.9-136.724,200.72-232.722" fill="none" stroke="#000" stroke-linecap="round" stroke-width="5"/>
            </g>
            <g id="Path_2082" transform="translate(-1583.51 -290.117)">
              <path id="Path_29" data-name="Path 29" d="M1822.38,1182.66s-17.52-23.13-23.96-42.19,1.12-24.98-1.81-34.05c-8.6-26.68-8.04-22.88-8.65-30.48-3.23-39.81,21.51-52.5,21.51-52.5s-23.58-.14-42.69,7.34-33.75,22.6-33.75,22.6-16.42-22.45-42.49-29.94-48.38-10.43-76.39,5.42-34.66,52.83-28.55,80.74,55.51,34.63,55.51,34.63-25.47-44.09-14.77-60.1,41.01-10.99,57.54-3.96c34.16,14.53,55.84,83.38,77.17,90.89C1810.54,1188.49,1822.38,1182.66,1822.38,1182.66Z" fill="#00904a" stroke="#000" stroke-width="5"/>
            </g>
            <g id="Path_2084" transform="translate(-1512.72 -339.453)">
              <path id="Path_30" data-name="Path 30" d="M1652.31,1063.7s15.02-1.91,26.99-25.46,20.88-68.754,20.88-68.754-25.72,24.827-37.68,48.384A94.745,94.745,0,0,0,1652.31,1063.7Z" fill="#fdfe74" stroke="#000" stroke-width="5"/>
            </g>
            <g id="Path_2085" transform="translate(18.841 660.14) rotate(-24)">
              <path id="Path_31" data-name="Path 31" d="M83.622,94.214S57.378,92.3,36.473,68.751,0,0,0,0,44.924,24.827,65.829,48.38,83.622,94.214,83.622,94.214Z" fill="#fdfe74" stroke="#000" stroke-width="5"/>
            </g>
            <g id="Path_2087" transform="translate(155.164 503.947) rotate(23.003)">
              <path id="Path_32" data-name="Path 32" d="M.13,115.907s20.886-2.35,37.523-31.326S66.681,0,66.681,0,30.928,30.543,14.291,59.52.13,115.907.13,115.907Z" fill="#fdfe74" stroke="#000" stroke-width="5"/>
            </g>
            <g id="Path_2088" transform="translate(113.001 651.245) rotate(156.997)">
              <path id="Path_33" data-name="Path 33" d="M.13,0S21.016,2.35,37.654,31.326s29.028,84.581,29.028,84.581S30.928,85.364,14.291,56.387.13,0,.13,0Z" fill="#fdfe74" stroke="#000" stroke-width="5"/>
            </g>
            <g id="Path_2089" transform="matrix(-0.946, 0.326, -0.326, -0.946, 103.968, 593.959)">
              <path id="Path_34" data-name="Path 34" d="M.13,0S21.016,2.35,37.654,31.326s29.028,84.581,29.028,84.581S30.928,85.364,14.291,56.387.13,0,.13,0Z" fill="#fdfe74" stroke="#000" stroke-width="5"/>
            </g>
            <g id="Path_2090" transform="translate(95.901 539.877) rotate(175.008)">
              <path id="Path_35" data-name="Path 35" d="M.13,0S21.016,2.35,37.654,31.326s29.028,84.581,29.028,84.581S30.928,85.364,14.291,56.387.13,0,.13,0Z" fill="#fdfe74" stroke="#000" stroke-width="5"/>
            </g>
            <g id="Path_2091" transform="translate(99.961 472.878) rotate(175.008)">
              <path id="Path_36" data-name="Path 36" d="M.13,0S21.016,2.35,37.654,31.326s29.028,84.581,29.028,84.581S30.928,85.364,14.291,56.387.13,0,.13,0Z" fill="#fdfe74" stroke="#000" stroke-width="5"/>
            </g>
            <g id="Path_2092" transform="translate(134.123 371.667) rotate(-169)">
              <path id="Path_37" data-name="Path 37" d="M.13,0S21.016,2.35,37.654,31.326s29.028,84.581,29.028,84.581S30.928,85.364,14.291,56.387.13,0,.13,0Z" fill="#fdfe74" stroke="#000" stroke-width="5"/>
            </g>
            <g id="Path_2093" transform="translate(111.13 418.264) rotate(-173.976)">
              <path id="Path_38" data-name="Path 38" d="M.13,0S21.016,2.35,37.654,31.326s29.028,84.581,29.028,84.581S30.928,85.364,14.291,56.387.13,0,.13,0Z" fill="#fdfe74" stroke="#000" stroke-width="5"/>
            </g>
            <g id="Path_2094" transform="matrix(-0.961, -0.276, 0.276, -0.961, 163.043, 334.74)">
              <path id="Path_39" data-name="Path 39" d="M.13,0S21.016,2.35,37.654,31.326s29.028,84.581,29.028,84.581S30.928,85.364,14.291,56.387.13,0,.13,0Z" fill="#fdfe74" stroke="#000" stroke-width="5"/>
            </g>
            <g id="Path_2095" transform="translate(199.082 291.038) rotate(-160.007)">
              <path id="Path_40" data-name="Path 40" d="M.13,0S21.016,2.35,37.654,31.326s29.028,84.581,29.028,84.581S30.928,85.364,14.291,56.387.13,0,.13,0Z" fill="#fdfe74" stroke="#000" stroke-width="5"/>
            </g>
            <g id="Path_2096" transform="translate(231.004 259.196) rotate(-156)">
              <path id="Path_41" data-name="Path 41" d="M.13,0S21.016,2.35,37.654,31.326s29.028,84.581,29.028,84.581S30.928,85.364,14.291,56.387.13,0,.13,0Z" fill="#fdfe74" stroke="#000" stroke-width="5"/>
            </g>
            <g id="Path_2097" transform="translate(269.579 216.56) rotate(-156)">
              <path id="Path_42" data-name="Path 42" d="M.13,0S21.016,2.35,37.654,31.326s29.028,84.581,29.028,84.581S30.928,85.364,14.291,56.387.13,0,.13,0Z" fill="#fdfe74" stroke="#000" stroke-width="5"/>
            </g>
            <g id="Path_2098" transform="translate(302.063 175.955) rotate(-156)">
              <path id="Path_43" data-name="Path 43" d="M.13,0S21.016,2.35,37.654,31.326s29.028,84.581,29.028,84.581S30.928,85.364,14.291,56.387.13,0,.13,0Z" fill="#fdfe74" stroke="#000" stroke-width="5"/>
            </g>
            <g id="Path_2099" transform="translate(354.129 121.277) rotate(-125.025)">
              <path id="Path_44" data-name="Path 44" d="M.13,0S21.016,2.35,37.654,31.326s29.028,84.581,29.028,84.581S30.928,85.364,14.291,56.387.13,0,.13,0Z" fill="#fdfe74" stroke="#000" stroke-width="5"/>
            </g>
            <g id="Path_2100" transform="matrix(-0.848, -0.53, 0.53, -0.848, 335.376, 133.631)">
              <path id="Path_45" data-name="Path 45" d="M.13,0S21.016,2.35,37.654,31.326s29.028,84.581,29.028,84.581S30.928,85.364,14.291,56.387.13,0,.13,0Z" fill="#fdfe74" stroke="#000" stroke-width="5"/>
            </g>
            <g id="Path_2101" transform="translate(341.56 143.303) rotate(-79)">
              <path id="Path_46" data-name="Path 46" d="M.13,0S21.016,2.35,37.654,31.326s29.028,84.581,29.028,84.581S30.928,85.364,14.29,56.387.13,0,.13,0Z" fill="#fdfe74" stroke="#000" stroke-width="5"/>
            </g>
            <g id="Path_2102" transform="translate(170.301 453.081) rotate(36)">
              <path id="Path_47" data-name="Path 47" d="M.13,115.907s20.886-2.35,37.523-31.326S66.681,0,66.681,0,30.928,30.543,14.291,59.52.13,115.907.13,115.907Z" fill="#fdfe74" stroke="#000" stroke-width="5"/>
            </g>
            <g id="Path_2103" transform="translate(181.272 405.461) rotate(42)">
              <path id="Path_48" data-name="Path 48" d="M.13,115.907s20.886-2.35,37.523-31.326S66.681,0,66.681,0,30.928,30.543,14.291,59.52.13,115.907.13,115.907Z" fill="#fdfe74" stroke="#000" stroke-width="5"/>
            </g>
            <g id="Path_2104" transform="matrix(0.643, 0.766, -0.766, 0.643, 202.416, 355.259)">
              <path id="Path_49" data-name="Path 49" d="M.13,115.907s20.886-2.35,37.523-31.326S66.681,0,66.681,0,30.928,30.543,14.291,59.52.13,115.907.13,115.907Z" fill="#fdfe74" stroke="#000" stroke-width="5"/>
            </g>
            <g id="Path_2105" transform="matrix(0.643, 0.766, -0.766, 0.643, 222.718, 308.563)">
              <path id="Path_50" data-name="Path 50" d="M.13,115.907s20.886-2.35,37.523-31.326S66.681,0,66.681,0,30.928,30.543,14.291,59.52.13,115.907.13,115.907Z" fill="#fdfe74" stroke="#000" stroke-width="5"/>
            </g>
            <g id="Path_2106" transform="translate(274.8 260.046) rotate(54.975)">
              <path id="Path_51" data-name="Path 51" d="M.13,115.907s20.886-2.35,37.523-31.326S66.681,0,66.681,0,30.928,30.543,14.291,59.52.13,115.907.13,115.907Z" fill="#fdfe74" stroke="#000" stroke-width="5"/>
            </g>
            <g id="Path_2107" transform="translate(311.345 217.411) rotate(54.975)">
              <path id="Path_52" data-name="Path 52" d="M.13,115.907s20.886-2.35,37.523-31.326S66.681,0,66.681,0,30.928,30.543,14.291,59.52.13,115.907.13,115.907Z" fill="#fdfe74" stroke="#000" stroke-width="5"/>
            </g>
            <g id="Path_2108" transform="translate(366.162 156.503) rotate(54.975)">
              <path id="Path_53" data-name="Path 53" d="M.13,115.907s20.886-2.35,37.523-31.326S66.681,0,66.681,0,30.928,30.543,14.291,59.52.13,115.907.13,115.907Z" fill="#fdfe74" stroke="#000" stroke-width="5"/>
            </g>
            <g id="Path_2122" transform="translate(400.162 115.503) rotate(54.975)">
              <path id="Path_54" data-name="Path 54" d="M.13,115.907s20.886-2.35,37.523-31.326S66.681,0,66.681,0,30.928,30.543,14.291,59.52.13,115.907.13,115.907Z" fill="#fdfe74" stroke="#000" stroke-width="5"/>
            </g>
          </g>
          <g id="Path_2109" transform="translate(-1048.58 -206.483)">
            <path id="Path_55" data-name="Path 55" d="M2102.73,1044.24l18.68-25.01" fill="none" stroke="#000" stroke-width="5"/>
          </g>
          <g id="Group_612" transform="translate(790.649 92.387)">
            <g id="Group_611" transform="matrix(0.358, -0.934, 0.934, 0.358, 0, 105.109)">
              <g id="Path_2111" transform="translate(21.209)">
                <path id="Path_56" data-name="Path 56" d="M6.081,73.136S-4.64,43.913,2.389,25.724,31.118-2.075,34.2.378c6.461,5.144,1.136,40.255,1.136,40.255s10.722-16.475,24.71-25.942S91.289,2.763,91.289,2.763s1.988,14.984-12.781,37.87c-2.3,3.556-29.539,30.713-29.539,30.713S66.508,61.283,76.8,64.488,93.237,80.744,90.153,84.169C84.9,90,74.532,94.158,60.046,96.693s-27.835-2.385-27.835-2.385Z" fill="#fff" stroke="#000" stroke-width="5"/>
              </g>
              <g id="Path_2110" transform="translate(0 25.806)">
                <path id="Path_57" data-name="Path 57" d="M82.683,74.547S58.967,96.314,40.364,94.824,14.985,75.311,8.268,68.583C-10.335,49.946,8.268,0,8.268,0s4.8,17.269,9.648,29.436a105.057,105.057,0,0,0,9.748,19.232L57.917,28.2,49.009,64.725s2.169,3.191,10.587,5.646S82.683,74.547,82.683,74.547Z" fill="#00904a" stroke="#000" stroke-width="5"/>
              </g>
            </g>
            <g id="Group_610" transform="matrix(0.358, -0.934, 0.934, 0.358, 41.803, 170.499)">
              <g id="Path_2111-2" transform="translate(24.138)">
                <path id="Path_58" data-name="Path 58" d="M6.921,83.236s-12.2-33.258-4.2-53.96S35.416-2.362,38.924.43c7.354,5.854,1.293,45.815,1.293,45.815S52.417,27.5,68.34,16.72,103.9,3.145,103.9,3.145s2.263,17.053-14.546,43.1C86.739,50.292,55.733,81.2,55.733,81.2s19.96-11.454,31.679-7.806,18.7,18.5,15.192,22.4c-5.976,6.637-17.779,11.369-34.265,14.254s-31.679-2.715-31.679-2.715Z" fill="#fff" stroke="#000" stroke-width="5"/>
              </g>
              <g id="Path_2110-2" transform="translate(0 29.37)">
                <path id="Path_59" data-name="Path 59" d="M94.1,84.842s-26.992,24.774-48.164,23.077S17.054,85.712,9.41,78.055C-11.763,56.844,9.41,0,9.41,0s5.462,19.654,10.981,33.5S31.485,55.39,31.485,55.39L65.915,32.1,55.777,73.663s2.469,3.631,12.049,6.426S94.1,84.842,94.1,84.842Z" fill="#00904a" stroke="#000" stroke-width="5"/>
              </g>
            </g>
            <g id="Group_609" transform="translate(82.988 250.215) rotate(-79)">
              <g id="Path_2111-3" transform="translate(10.611)">
                <path id="Path_60" data-name="Path 60" d="M8.772,105.506S-6.7,63.349,3.446,37.106,44.891-2.994,49.337.545c9.322,7.42,1.639,58.072,1.639,58.072S66.444,34.851,86.624,21.193,131.7,3.986,131.7,3.986s2.868,21.616-18.437,54.631c-3.311,5.13-42.614,44.307-42.614,44.307s25.3-14.518,40.155-9.894,23.706,23.451,19.258,28.391c-7.575,8.413-22.536,14.41-43.432,18.067s-40.155-3.441-40.155-3.441Z" fill="#fff" stroke="#000" stroke-width="5"/>
              </g>
              <g id="Path_2110-3" transform="translate(0 23.002)">
                <path id="Path_61" data-name="Path 61" d="M119.28,107.542s-34.213,31.4-61.051,29.251-36.613-28.149-46.3-37.855C-14.91,72.053,11.928,0,11.928,0s6.924,24.912,13.918,42.465S39.91,70.209,39.91,70.209L83.55,40.683,70.7,93.372s3.129,4.6,15.273,8.145S119.28,107.542,119.28,107.542Z" fill="#00904a" stroke="#000" stroke-width="5"/>
              </g>
            </g>
            <g id="Path_2082-2" transform="translate(-1397.83 -300.787)">
              <path id="Path_62" data-name="Path 62" d="M1583.51,1182.66s17.52-23.13,23.96-42.19-1.12-24.98,1.81-34.05c8.61-26.68,8.04-22.88,8.65-30.48,3.23-39.81-21.51-52.5-21.51-52.5s23.58-.14,42.69,7.34,33.75,22.6,33.75,22.6,16.42-22.45,42.49-29.94,48.38-10.43,76.39,5.42,34.66,52.83,28.56,80.74-55.51,34.63-55.51,34.63,25.46-44.09,14.77-60.1-41.02-10.99-57.55-3.96c-34.15,14.53-55.84,83.38-77.17,90.89C1595.35,1188.49,1583.51,1182.66,1583.51,1182.66Z" fill="#00904a" stroke="#000" stroke-width="5"/>
            </g>
            <g id="Group_608" transform="matrix(0.358, -0.934, 0.934, 0.358, 135.889, 304.475)">
              <g id="Path_2111-4" transform="translate(30.122)">
                <path id="Path_63" data-name="Path 63" d="M8.636,103.869s-15.227-41.5-5.243-67.335,40.8-39.481,45.179-36c9.177,7.305,1.613,57.171,1.613,57.171S65.413,34.31,85.28,20.864s44.371-16.94,44.371-16.94S132.475,25.2,111.5,57.707c-3.26,5.05-41.952,43.62-41.952,43.62s24.908-14.293,39.532-9.74,23.338,23.087,18.959,27.951c-7.458,8.283-22.186,14.187-42.759,17.787s-39.531-3.388-39.531-3.388Z" fill="#fff" stroke="#000" stroke-width="5"/>
              </g>
              <g id="Path_2110-4" transform="translate(0 36.65)">
                <path id="Path_64" data-name="Path 64" d="M117.429,105.873s-33.682,30.915-60.1,28.8S21.281,106.958,11.743,97.4c-26.422-26.468,0-97.4,0-97.4s6.816,24.526,13.7,41.806S39.29,69.12,39.29,69.12L82.254,40.052,69.6,91.923s3.081,4.532,15.037,8.019S117.429,105.873,117.429,105.873Z" fill="#00904a" stroke="#000" stroke-width="5"/>
              </g>
            </g>
            <g id="Group_607" transform="translate(191.767 365.969) rotate(-60)">
              <g id="Path_2111-5" transform="translate(31.998)">
                <path id="Path_65" data-name="Path 65" d="M9.174,107.707S-7,64.671,3.6,37.884,46.947-3.056,51.6.557c9.748,7.575,1.713,59.284,1.713,59.284s16.177-24.263,37.28-38.2S137.725,4.07,137.725,4.07s3,22.067-19.282,55.771c-3.463,5.237-44.565,45.231-44.565,45.231s26.46-14.821,41.994-10.1,24.791,23.94,20.139,28.984c-7.922,8.589-23.568,14.711-45.421,18.444s-41.99-3.513-41.99-3.513Z" fill="#fff" stroke="#000" stroke-width="5"/>
              </g>
              <g id="Path_2110-5" transform="translate(0 38.005)">
                <path id="Path_66" data-name="Path 66" d="M124.742,109.786S88.962,141.844,60.9,139.648,22.606,110.911,12.474,101c-28.067-27.447,0-101,0-101S19.715,25.432,27.03,43.351,41.737,71.674,41.737,71.674l45.64-30.142L73.937,95.321s3.273,4.7,15.974,8.315S124.742,109.786,124.742,109.786Z" fill="#00904a" stroke="#000" stroke-width="5"/>
              </g>
            </g>
            <g id="Group_606" transform="matrix(0.695, -0.719, 0.719, 0.695, 250.573, 420.299)">
              <g id="Path_2111-6" transform="translate(30.38)">
                <path id="Path_67" data-name="Path 67" d="M8.71,99.849S-6.648,59.953,3.423,35.12,44.574-2.833,48.989.516c9.256,7.023,1.627,54.959,1.627,54.959s15.359-22.492,35.4-35.418S130.765,3.773,130.765,3.773s2.847,20.457-18.308,51.7C109.17,60.33,70.144,97.407,70.144,97.407s25.123-13.74,39.872-9.363,23.538,22.194,19.121,26.869c-7.522,7.962-22.377,13.638-43.126,17.1s-39.871-3.257-39.871-3.257Z" fill="#fff" stroke="#000" stroke-width="5"/>
              </g>
              <g id="Path_2110-6" transform="translate(0 35.232)">
                <path id="Path_68" data-name="Path 68" d="M118.438,101.776s-33.971,29.719-60.62,27.683-36.353-26.64-45.973-35.825C-14.8,68.19,11.844,0,11.844,0s6.875,23.577,13.82,40.188S39.627,66.445,39.627,66.445L82.96,38.5,70.2,88.366s3.108,4.356,15.167,7.708S118.438,101.776,118.438,101.776Z" fill="#00904a" stroke="#000" stroke-width="5"/>
              </g>
            </g>
            <g id="Group_605" transform="translate(256.605 485.588) rotate(-35.025)">
              <g id="Path_2111-7" transform="translate(30.38)">
                <path id="Path_69" data-name="Path 69" d="M8.71,99.849S-6.648,59.953,3.423,35.12,44.574-2.833,48.989.516c9.256,7.023,1.627,54.959,1.627,54.959s15.359-22.492,35.4-35.418S130.765,3.773,130.765,3.773s2.847,20.457-18.308,51.7C109.17,60.33,70.144,97.407,70.144,97.407s25.123-13.74,39.872-9.363,23.538,22.194,19.121,26.869c-7.522,7.962-22.377,13.638-43.126,17.1s-39.871-3.257-39.871-3.257Z" fill="#fff" stroke="#000" stroke-width="5"/>
              </g>
              <g id="Path_2110-7" transform="translate(0 35.232)">
                <path id="Path_70" data-name="Path 70" d="M118.438,101.776s-33.971,29.719-60.62,27.683-36.353-26.64-45.973-35.825C-14.8,68.19,11.844,0,11.844,0s6.875,23.577,13.82,40.188S39.627,66.445,39.627,66.445L82.96,38.5,70.2,88.366s3.108,4.356,15.167,7.708S118.438,101.776,118.438,101.776Z" fill="#00904a" stroke="#000" stroke-width="5"/>
              </g>
            </g>
            <g id="Group_604" transform="translate(263.713 536.889) rotate(-12.007)">
              <g id="Path_2111-8" transform="translate(27.704)">
                <path id="Path_71" data-name="Path 71" d="M7.943,91s-14-36.358-4.822-58.99S40.647-2.582,44.673.47c8.44,6.4,1.484,50.085,1.484,50.085s14.006-20.5,32.277-32.277,40.81-14.84,40.81-14.84,2.6,18.643-16.7,47.117c-3,4.424-38.585,38.213-38.585,38.213s22.91-12.521,36.359-8.533,21.465,20.225,17.437,24.486C110.9,111.977,97.349,117.15,78.429,120.3s-36.359-2.968-36.359-2.968Z" fill="#fff" stroke="#000" stroke-width="5"/>
              </g>
              <g id="Path_2110-8" transform="translate(0 32.108)">
                <path id="Path_72" data-name="Path 72" d="M108,92.751S77.022,119.834,52.721,117.98,19.573,93.7,10.8,85.331C-13.5,62.143,10.8,0,10.8,0s6.27,21.486,12.6,36.624S36.137,60.553,36.137,60.553L75.652,35.088,64.016,80.53s2.834,3.97,13.83,7.025S108,92.751,108,92.751Z" fill="#00904a" stroke="#000" stroke-width="5"/>
              </g>
            </g>
            <g id="Group_603" transform="translate(250.516 602.976)">
              <g id="Path_2111-9" transform="translate(-2084.91 -960.414)">
                <path id="Path_73" data-name="Path 73" d="M2113.87,1034.32s-11.38-29.53-3.92-47.91,30.48-28.094,33.75-25.614c6.86,5.2,1.21,40.684,1.21,40.684s11.37-16.652,26.21-26.22,33.15-12.054,33.15-12.054,2.11,15.142-13.56,38.274c-2.44,3.59-31.34,31.03-31.34,31.03s18.61-10.17,29.53-6.93,17.43,16.43,14.16,19.89c-5.57,5.9-16.57,10.1-31.94,12.66s-29.53-2.41-29.53-2.41Z" fill="#fff" stroke="#000" stroke-width="5"/>
              </g>
              <g id="Path_2110-9" transform="translate(-2096.33 -948.18)">
                <path id="Path_74" data-name="Path 74" d="M2184.05,1049.59s-25.16,22-44.89,20.5-26.93-19.72-34.06-26.52c-19.73-18.84,0-69.311,0-69.311s5.1,17.452,10.24,29.751a104.321,104.321,0,0,0,10.34,19.43l32.1-20.68-9.45,36.91s2.3,3.22,11.24,5.7S2184.05,1049.59,2184.05,1049.59Z" fill="#00904a" stroke="#000" stroke-width="5"/>
              </g>
            </g>
          </g>
          <g id="Path_2117" transform="translate(-1526.23 -80.439)">
            <path id="Path_75" data-name="Path 75" d="M1639.11,1142.88l210,151.21,445.29,10.9,183.84-84.43,123.92-78.98-91.24,93.96,91.24-14.98L2451,1317.24l-675.63-6.6-136.26-89.04,99.6,25.14Z" fill="#fff" stroke="#000" stroke-width="5"/>
          </g>
          <g id="Group_615" transform="translate(112.134 1041.8)">
            <g id="Group_614">
              <g id="Path_2116" transform="translate(-976.989 -1085.29)">
                <path id="Path_76" data-name="Path 76" d="M1812.2,1177.44l-110.51,16.8v18.34Z" fill="#ea3c00" stroke="#000" stroke-width="5"/>
              </g>
              <g id="Path_2115" transform="translate(-1573.88 -1085.29)">
                <path id="Path_77" data-name="Path 77" d="M1701.69,1177.44l110.51,16.8v18.34Z" fill="#ea3c00" stroke="#000" stroke-width="5"/>
              </g>
              <g id="Path_2112" transform="translate(-1638.74 -1132.05)">
                <path id="Path_78" data-name="Path 78" d="M1638.74,1132.05s59.91,39.66,119.87,66.74,119.97,41.56,119.97,41.56l-124.19-19.02s177.15,76.29,358.04,77.2,365.5-73.53,365.5-73.53l-115.03,16.7s77.85-24.99,136.9-51.67,99.28-55.07,99.28-55.07l-113.21,101.3,117.18-21.19-117.18,65.14s-168.86,83.23-351.73,82.89-379.75-84.27-379.75-84.27L1638.74,1216l115.65,19.8Z" fill="#ea3c00" stroke="#000" stroke-width="5"/>
              </g>
              <g id="Group_613" transform="translate(117.892 88.506)">
                <g id="Path_2114" transform="translate(-1697.02 -1108.13)">
                  <path id="Path_79" data-name="Path 79" d="M1697.02,1177.4v71.17s210.14,68.63,390.88,68.5,330.52-68.5,330.52-68.5V1177.6s-174.47,66.81-354.83,66.76S1697.02,1177.4,1697.02,1177.4Z" fill="#fff" stroke="#000" stroke-width="5"/>
                </g>
                <g id="Path_2113" transform="translate(-1697.02 -1177.39)">
                  <path id="Path_80" data-name="Path 80" d="M1697.02,1177.4v78.53s210.14,75.72,390.88,75.58,330.52-75.58,330.52-75.58v-78.3s-174.47,73.71-354.83,73.65S1697.02,1177.4,1697.02,1177.4Z" fill="#ea3c00" stroke="#000" stroke-width="5"/>
                </g>
              </g>
            </g>
          </g>
        </g>
      </g>
    </g>
    <g id="Group_21" data-name="Group 21" transform="translate(827.939 493.294) rotate(9.647)">
      <g id="Group_5" data-name="Group 5" transform="translate(193.836 -34.84) rotate(7.985)">
        <text id="S" transform="translate(346.486 1371.102)" font-size="64" font-family="TimesNewRomanPS-BoldMT, Times New Roman" font-weight="700"><tspan x="0" y="0">S</tspan></text>
      </g>
      <g id="Group_6" data-name="Group 6" transform="matrix(0.995, 0.098, -0.098, 0.995, 136.488, -30.76)">
        <text id="M" transform="translate(381.898 1376.338)" font-size="64" font-family="TimesNewRomanPS-BoldMT, Times New Roman" font-weight="700"><tspan x="0" y="0">M</tspan></text>
      </g>
      <g id="Group_7" data-name="Group 7" transform="translate(74.453 -21.663) rotate(3.062)">
        <text id="A" transform="translate(442.53 1382.127)" font-size="64" font-family="TimesNewRomanPS-BoldMT, Times New Roman" font-weight="700"><tspan x="0" y="0">A</tspan></text>
      </g>
      <g id="Group_8" data-name="Group 8" transform="translate(8.318 -2.984) rotate(0.344)">
        <text id="N" transform="translate(501.468 1384.963)" font-size="64" font-family="TimesNewRomanPS-BoldMT, Times New Roman" font-weight="700"><tspan x="0" y="0">N</tspan></text>
      </g>
      <g id="Group_9" data-name="Group 9" transform="translate(-40.461 16.699) rotate(-1.684)">
        <text id="E" transform="translate(548.015 1385.206)" font-size="64" font-family="TimesNewRomanPS-BoldMT, Times New Roman" font-weight="700"><tspan x="0" y="0">E</tspan></text>
      </g>
      <g id="Group_10" data-name="Group 10" transform="translate(-93.782 43.921) rotate(-3.943)">
        <text id="G" transform="translate(590.999 1384.011)" font-size="64" font-family="TimesNewRomanPS-BoldMT, Times New Roman" font-weight="700"><tspan x="0" y="0">G</tspan></text>
      </g>
      <g id="Group_11" data-name="Group 11" transform="translate(-142.99 75.885) rotate(-6.096)">
        <text id="E-2" data-name="E" transform="translate(641.003 1380.498)" font-size="64" font-family="TimesNewRomanPS-BoldMT, Times New Roman" font-weight="700"><tspan x="0" y="0">E</tspan></text>
      </g>
      <g id="Group_12" data-name="Group 12" transform="translate(-193.992 114.882) rotate(-8.415)">
        <text id="R" transform="translate(683.83 1375.968)" font-size="64" font-family="TimesNewRomanPS-BoldMT, Times New Roman" font-weight="700"><tspan x="0" y="0">R</tspan></text>
      </g>
      <g id="Group_13" data-name="Group 13" transform="translate(-231.282 151.177) rotate(-10.218)">
        <text id="I" transform="translate(729.814 1369.016)" font-size="64" font-family="TimesNewRomanPS-BoldMT, Times New Roman" font-weight="700"><tspan x="0" y="0">I</tspan></text>
      </g>
      <g id="Group_14" data-name="Group 14" transform="translate(-279.194 201.515) rotate(-12.637)">
        <text id="_1" data-name="1" transform="translate(770.328 1361.435)" font-size="64" font-family="TimesNewRomanPS-BoldMT, Times New Roman" font-weight="700"><tspan x="0" y="0">1</tspan></text>
      </g>
      <g id="Group_15" data-name="Group 15" transform="translate(-342.042 279.163) rotate(-16.075)">
        <text id="K" transform="translate(817.46 1350.702)" font-size="64" font-family="TimesNewRomanPS-BoldMT, Times New Roman" font-weight="700"><tspan x="0" y="0">K</tspan></text>
      </g>
      <g id="Group_16" data-name="Group 16" transform="matrix(0.946, -0.325, 0.325, 0.946, -386.98, 353.24)">
        <text id="E-3" data-name="E" transform="translate(865.527 1336.801)" font-size="64" font-family="TimesNewRomanPS-BoldMT, Times New Roman" font-weight="700"><tspan x="0" y="0">E</tspan></text>
      </g>
      <g id="Group_17" data-name="Group 17" transform="matrix(0.926, -0.376, 0.376, 0.926, -431.16, 438.276)">
        <text id="D" transform="translate(906.32 1322.819)" font-size="64" font-family="TimesNewRomanPS-BoldMT, Times New Roman" font-weight="700"><tspan x="0" y="0">D</tspan></text>
      </g>
      <g id="Group_18" data-name="Group 18" transform="translate(-462.36 523.055) rotate(-24.983)">
        <text id="I-2" data-name="I" transform="translate(949.322 1305.048)" font-size="64" font-family="TimesNewRomanPS-BoldMT, Times New Roman" font-weight="700"><tspan x="0" y="0">I</tspan></text>
      </g>
      <g id="Group_19" data-name="Group 19" transform="translate(-496.421 612.933) rotate(-28.195)">
        <text id="R-2" data-name="R" transform="translate(972.101 1294.802)" font-size="64" font-family="TimesNewRomanPS-BoldMT, Times New Roman" font-weight="700"><tspan x="0" y="0">R</tspan></text>
      </g>
      <g id="Group_20" data-name="Group 20" transform="translate(-517.017 720.602) rotate(-31.642)">
        <text id="I-3" data-name="I" transform="translate(1012.998 1272.57)" font-size="64" font-family="TimesNewRomanPS-BoldMT, Times New Roman" font-weight="700"><tspan x="0" y="0">I</tspan></text>
      </g>
    </g>
  </g>
</svg>
