<svg xmlns="http://www.w3.org/2000/svg" xmlns:xlink="http://www.w3.org/1999/xlink" width="950.85" height="37" viewBox="0 0 950.85 37">
  <defs>
    <filter id="Path_1105" x="301" y="0" width="37" height="37" filterUnits="userSpaceOnUse">
      <feOffset dy="3" input="SourceAlpha"/>
      <feGaussianBlur stdDeviation="3" result="blur"/>
      <feFlood flood-opacity="0.161"/>
      <feComposite operator="in" in2="blur"/>
      <feComposite in="SourceGraphic"/>
    </filter>
    <filter id="Path_1106" x="310.5" y="9.5" width="27.5" height="27.5" filterUnits="userSpaceOnUse">
      <feOffset dy="3" input="SourceAlpha"/>
      <feGaussianBlur stdDeviation="3" result="blur-2"/>
      <feFlood flood-opacity="0.161"/>
      <feComposite operator="in" in2="blur-2"/>
      <feComposite in="SourceGraphic"/>
    </filter>
  </defs>
  <g id="Group_2020" data-name="Group 2020" transform="translate(-29 -1273)">
    <g id="Group_1297" data-name="Group 1297" transform="translate(0 0)">
      <ellipse id="Ellipse_1" data-name="Ellipse 1" cx="14.5" cy="14.5" rx="14.5" ry="14.5" transform="translate(29 1274)" fill="#141414"/>
      <g id="email_1_" data-name="email(1)" transform="translate(35.13 1282.854)">
        <g id="Group_1287" data-name="Group 1287" transform="translate(1.415 0)">
          <g id="Group_1286" data-name="Group 1286">
            <path id="Path_2152" data-name="Path 2152" d="M43.52,76.8l6.906,4.647L57.332,76.8Z" transform="translate(-43.52 -76.8)" fill="#fff"/>
          </g>
        </g>
        <g id="Group_1289" data-name="Group 1289" transform="translate(0 0.961)">
          <g id="Group_1288" data-name="Group 1288" transform="translate(0 0)">
            <path id="Path_2153" data-name="Path 2153" d="M8.737,112.808a.931.931,0,0,1-.915,0L0,107.52v9.455a.879.879,0,0,0,.832.8H15.809a.879.879,0,0,0,.832-.8V107.52Z" transform="translate(0 -107.52)" fill="#fff"/>
          </g>
        </g>
      </g>
      <text id="info_sman1kediritabanan.sch.id" data-name="info@sman1kediritabanan.sch.id" transform="translate(63 1295)" fill="#131313" font-size="17" font-family="Roboto-Bold, Roboto" font-weight="700" letter-spacing="0.014em"><tspan x="0" y="0">info@sman1kediritabanan.sch.id</tspan></text>
    </g>
    <g id="Group_1295" data-name="Group 1295" transform="translate(-56.15 0)">
      <text id="Jl._bingin_ambe_banjar_anyar_kediri_tabanan" data-name="Jl. bingin ambe, banjar anyar, kediri, tabanan" transform="translate(684 1294)" fill="#131313" font-size="17" font-family="Roboto-Bold, Roboto" font-weight="700" letter-spacing="0.014em"><tspan x="0" y="0">Jl. bingin ambe, banjar anyar, kediri, tabanan</tspan></text>
      <g id="Group_1292" data-name="Group 1292" transform="translate(650.15 1273)">
        <ellipse id="Ellipse_5" data-name="Ellipse 5" cx="14.5" cy="14.916" rx="14.5" ry="14.916" fill="#141414"/>
        <g id="map" transform="translate(6 6)">
          <path id="Path_1164" data-name="Path 1164" d="M68.438,27.99a.519.519,0,0,0,.86,0c.035-.051.858-1.26,1.695-2.721,1.173-2.048,1.743-3.472,1.743-4.355a3.945,3.945,0,0,0-.212-1.28A3.863,3.863,0,0,0,65,20.914c0,.883.57,2.307,1.743,4.355C67.581,26.73,68.4,27.939,68.438,27.99Zm.43-8.735a1.659,1.659,0,1,1-1.638,1.659A1.65,1.65,0,0,1,68.869,19.255Z" transform="translate(-62.735 -16.997)" fill="#fff"/>
          <path id="Path_1165" data-name="Path 1165" d="M356.19,84.728,351,83.683v13.5l4.987,1a.525.525,0,0,0,.625-.519V85.247A.528.528,0,0,0,356.19,84.728Z" transform="translate(-338.767 -81.33)" fill="#fff"/>
          <path id="Path_1166" data-name="Path 1166" d="M5.611,90.925a1.57,1.57,0,0,1-.767-.594c-.036-.052-.879-1.291-1.739-2.792-.74-1.292-1.885-3.4-1.885-4.886a5.016,5.016,0,0,1,.223-1.484l-.818-.165A.525.525,0,0,0,0,81.524V93.946a.528.528,0,0,0,.421.519l5.19,1.045Z" transform="translate(0 -78.737)" fill="#fff"/>
          <path id="Path_1167" data-name="Path 1167" d="M195.531,128h0a10.65,10.65,0,0,1-.648,2.138,34.566,34.566,0,0,1-3.115,5.54,1.57,1.57,0,0,1-.768.594v4.584l4.531-.918Z" transform="translate(-184.343 -124.082)" fill="#fff"/>
        </g>
      </g>
    </g>
    <g id="Group_1296" data-name="Group 1296">
      <text id="sman1kediritabanan.sch.id" transform="translate(369.328 1295)" fill="#141414" font-size="17" font-family="Roboto-Bold, Roboto" font-weight="700" letter-spacing="0.014em"><tspan x="0" y="0">sman1kediritabanan.sch.id</tspan></text>
      <g id="Group_1294" data-name="Group 1294">
        <ellipse id="Ellipse_6" data-name="Ellipse 6" cx="14.5" cy="14.5" rx="14.5" ry="14.5" transform="translate(334 1274)" fill="#141414"/>
        <g id="www" transform="translate(339 1279)">
          <g transform="matrix(1, 0, 0, 1, -310, -6)" filter="url(#Path_1105)">
            <path id="Path_1105-2" data-name="Path 1105" d="M9.5,0a9.5,9.5,0,0,0,0,19,9.058,9.058,0,0,0,2.13-.245,5.659,5.659,0,0,1-2.921-2v.388a5.551,5.551,0,0,1-1.789-2.905c.222-.032.451-.063.681-.087a4.677,4.677,0,0,1-.079-.887,5.18,5.18,0,0,1,.048-.7q-.534.059-1.045.142a16.991,16.991,0,0,1-.277-2.422H8.368A5.5,5.5,0,0,1,10.292,8.36V6.515A17.464,17.464,0,0,0,12.477,6.3a11.873,11.873,0,0,1,.182,1.251,5.018,5.018,0,0,1,.6-.032,5.279,5.279,0,0,1,1.005.095q-.083-.855-.237-1.639a12.325,12.325,0,0,0,2.122-.76,7.925,7.925,0,0,1,1.227,3.475h-.649a5.632,5.632,0,0,1,2.027,2.937A9.058,9.058,0,0,0,19,9.5,9.507,9.507,0,0,0,9.5,0ZM2.85,5.217a12.325,12.325,0,0,0,2.122.76,18,18,0,0,0-.309,2.715H1.623A7.925,7.925,0,0,1,2.85,5.217ZM1.623,10.276h3.04a18.319,18.319,0,0,0,.309,2.747,12.325,12.325,0,0,0-2.122.76,7.886,7.886,0,0,1-1.227-3.507Zm4.663,6.452a7.9,7.9,0,0,1-2.415-1.67,9.546,9.546,0,0,1,1.48-.5,10.339,10.339,0,0,0,.934,2.169ZM5.352,4.441a9.546,9.546,0,0,1-1.48-.5,7.9,7.9,0,0,1,2.415-1.67A10.339,10.339,0,0,0,5.352,4.441ZM8.708,8.692H6.246A16.664,16.664,0,0,1,6.523,6.3a17.464,17.464,0,0,0,2.185.214Zm0-3.76a16.139,16.139,0,0,1-1.789-.166A5.551,5.551,0,0,1,8.708,1.86Zm1.583,0V1.86a5.551,5.551,0,0,1,1.789,2.905A16.139,16.139,0,0,1,10.292,4.932Zm3.357-.491a10.339,10.339,0,0,0-.934-2.169,7.9,7.9,0,0,1,2.415,1.67,9.546,9.546,0,0,1-1.48.5Z" transform="translate(310 6)" fill="#fff"/>
          </g>
          <g transform="matrix(1, 0, 0, 1, -310, -6)" filter="url(#Path_1106)">
            <path id="Path_1106-2" data-name="Path 1106" d="M21.268,20.149l-2.011-2.011a3.97,3.97,0,1,0-1.119,1.119l2.011,2.011a.792.792,0,0,0,1.119-1.119Z" transform="translate(307.5 3.5)" fill="#fff"/>
          </g>
        </g>
      </g>
    </g>
  </g>
</svg>
